<?xml version="1.0" encoding="UTF-8"?>
<svg width="700pt" height="700pt" version="1.1" viewBox="0 0 700 700" xmlns="http://www.w3.org/2000/svg" xmlns:xlink="http://www.w3.org/1999/xlink">
 <defs>
  <symbol id="w" overflow="visible">
   <path d="m2.2188-0.125c-0.11719 0.054688-0.23438 0.09375-0.35938 0.125s-0.25781 0.046875-0.39062 0.046875c-0.39844 0-0.71484-0.10938-0.95312-0.32812-0.23047-0.22656-0.34375-0.53516-0.34375-0.92188 0-0.38281 0.11328-0.6875 0.34375-0.90625 0.23828-0.22656 0.55469-0.34375 0.95312-0.34375 0.13281 0 0.26562 0.015625 0.39062 0.046875 0.125 0.023438 0.24219 0.0625 0.35938 0.125v0.5c-0.11719-0.070312-0.23047-0.125-0.34375-0.15625-0.11719-0.039062-0.23047-0.0625-0.34375-0.0625-0.23047 0-0.40625 0.074219-0.53125 0.21875-0.125 0.13672-0.1875 0.32812-0.1875 0.57812s0.0625 0.44922 0.1875 0.59375c0.125 0.13672 0.30078 0.20312 0.53125 0.20312 0.11328 0 0.22656-0.015625 0.34375-0.046875 0.11328-0.039063 0.22656-0.097656 0.34375-0.17188z"/>
  </symbol>
  <symbol id="d" overflow="visible">
   <path d="m1.625-1.3125c-0.054688-0.03125-0.10547-0.050781-0.15625-0.0625-0.054688-0.007812-0.10156-0.015625-0.14062-0.015625-0.15625 0-0.27734 0.054687-0.35938 0.15625-0.074219 0.09375-0.10938 0.23047-0.10938 0.40625v0.82812h-0.57812v-1.8125h0.57812v0.29688c0.070313-0.11328 0.15625-0.19531 0.25-0.25 0.10156-0.0625 0.21875-0.09375 0.34375-0.09375 0.019531 0 0.039063 0.007813 0.0625 0.015625h0.10938z"/>
  </symbol>
  <symbol id="b" overflow="visible">
   <path d="m2.0938-0.90625v0.15625h-1.3594c0.007813 0.13672 0.054687 0.24219 0.14062 0.3125 0.082031 0.0625 0.20312 0.09375 0.35938 0.09375 0.125 0 0.25-0.015625 0.375-0.046875 0.125-0.039063 0.25391-0.097656 0.39062-0.17188v0.45312c-0.13672 0.054688-0.27344 0.089844-0.40625 0.10938-0.13672 0.03125-0.27734 0.046875-0.42188 0.046875-0.32422 0-0.57812-0.082031-0.76562-0.25-0.17969-0.16406-0.26562-0.39844-0.26562-0.70312 0-0.28906 0.085937-0.51953 0.26562-0.6875 0.17578-0.17578 0.42188-0.26562 0.73438-0.26562 0.28906 0 0.51953 0.089844 0.6875 0.26562 0.17578 0.16797 0.26562 0.39844 0.26562 0.6875zm-0.60938-0.20312c0-0.10156-0.03125-0.1875-0.09375-0.25-0.0625-0.070313-0.14844-0.10938-0.25-0.10938-0.11719 0-0.21094 0.03125-0.28125 0.09375-0.0625 0.0625-0.10547 0.15234-0.125 0.26562z"/>
  </symbol>
  <symbol id="c" overflow="visible">
   <path d="m1.0938-0.8125c-0.125 0-0.21875 0.023438-0.28125 0.0625-0.0625 0.042969-0.09375 0.10156-0.09375 0.17188 0 0.074219 0.023438 0.13281 0.078125 0.17188 0.050781 0.042969 0.11719 0.0625 0.20312 0.0625 0.11328 0 0.20703-0.035156 0.28125-0.10938 0.070312-0.082031 0.10938-0.17969 0.10938-0.29688v-0.0625zm0.875-0.21875v1.0312h-0.57812v-0.26562c-0.074219 0.10547-0.16406 0.18359-0.26562 0.23438-0.09375 0.050781-0.21094 0.078125-0.34375 0.078125-0.1875 0-0.34375-0.050781-0.46875-0.15625-0.11719-0.11328-0.17188-0.25781-0.17188-0.4375 0-0.20703 0.070313-0.35938 0.21875-0.45312 0.14453-0.10156 0.375-0.15625 0.6875-0.15625h0.34375v-0.046875c0-0.09375-0.039063-0.16016-0.10938-0.20312-0.074219-0.039062-0.1875-0.0625-0.34375-0.0625-0.11719 0-0.23047 0.015625-0.34375 0.046875-0.10547 0.023437-0.20312 0.054687-0.29688 0.09375v-0.4375c0.125-0.03125 0.25-0.050781 0.375-0.0625 0.125-0.019531 0.25-0.03125 0.375-0.03125 0.33203 0 0.56641 0.070313 0.70312 0.20312 0.14453 0.125 0.21875 0.33594 0.21875 0.625z"/>
  </symbol>
  <symbol id="a" overflow="visible">
   <path d="m0.90625-2.3281v0.51562h0.59375v0.42188h-0.59375v0.76562c0 0.085938 0.015625 0.14062 0.046875 0.17188 0.039063 0.023437 0.10938 0.03125 0.20312 0.03125h0.29688v0.42188h-0.5c-0.21875 0-0.38281-0.046875-0.48438-0.14062-0.09375-0.09375-0.14062-0.25391-0.14062-0.48438v-0.76562h-0.28125v-0.42188h0.28125v-0.51562z"/>
  </symbol>
  <symbol id="f" overflow="visible">
   <path d="m1.5156-1.5469v-0.96875h0.57812v2.5156h-0.57812v-0.26562c-0.085937 0.10547-0.17188 0.18359-0.26562 0.23438s-0.21094 0.078125-0.34375 0.078125c-0.21875 0-0.40234-0.085938-0.54688-0.26562-0.13672-0.17578-0.20312-0.40625-0.20312-0.6875s0.066406-0.50781 0.20312-0.6875c0.14453-0.17578 0.32812-0.26562 0.54688-0.26562 0.125 0 0.23438 0.027344 0.32812 0.078125 0.10156 0.054688 0.19531 0.13281 0.28125 0.23438zm-0.39062 1.1719c0.125 0 0.21875-0.039062 0.28125-0.125 0.070312-0.09375 0.10938-0.22656 0.10938-0.40625 0-0.16406-0.039063-0.29688-0.10938-0.39062-0.0625-0.09375-0.15625-0.14062-0.28125-0.14062s-0.21875 0.046875-0.28125 0.14062-0.09375 0.22656-0.09375 0.39062c0 0.17969 0.03125 0.3125 0.09375 0.40625 0.0625 0.085938 0.15625 0.125 0.28125 0.125z"/>
  </symbol>
  <symbol id="l" overflow="visible">
   <path d="m1.25-0.375c0.11328 0 0.20312-0.039062 0.26562-0.125 0.070313-0.09375 0.10938-0.22656 0.10938-0.40625 0-0.16406-0.039062-0.29688-0.10938-0.39062-0.0625-0.09375-0.15234-0.14062-0.26562-0.14062-0.125 0-0.22656 0.046875-0.29688 0.14062-0.0625 0.09375-0.09375 0.22656-0.09375 0.39062 0 0.17969 0.03125 0.3125 0.09375 0.40625 0.070313 0.085938 0.17188 0.125 0.29688 0.125zm-0.39062-1.1719c0.082031-0.10156 0.17188-0.17969 0.26562-0.23438 0.09375-0.050781 0.20312-0.078125 0.32812-0.078125 0.22656 0 0.41016 0.089844 0.54688 0.26562 0.14453 0.17969 0.21875 0.40625 0.21875 0.6875s-0.074219 0.51172-0.21875 0.6875c-0.13672 0.17969-0.32031 0.26562-0.54688 0.26562-0.125 0-0.23438-0.027344-0.32812-0.078125s-0.18359-0.12891-0.26562-0.23438v0.26562h-0.57812v-2.5156h0.57812z"/>
  </symbol>
  <symbol id="k" overflow="visible">
   <path d="m0.046875-1.8125h0.57812l0.48438 1.2344 0.40625-1.2344h0.57812l-0.75 1.9844c-0.085938 0.19531-0.17969 0.33594-0.28125 0.42188-0.09375 0.082031-0.22656 0.125-0.39062 0.125h-0.34375v-0.39062h0.1875c0.09375 0 0.16016-0.015625 0.20312-0.046875 0.050781-0.03125 0.085938-0.085938 0.10938-0.15625l0.015625-0.0625z"/>
  </symbol>
  <symbol id="j" overflow="visible">
   <path d="m1.9844-2.3438v0.51562c-0.13672-0.0625-0.26562-0.10156-0.39062-0.125-0.125-0.03125-0.24609-0.046875-0.35938-0.046875-0.14844 0-0.25781 0.023438-0.32812 0.0625-0.074219 0.03125-0.10938 0.09375-0.10938 0.1875 0 0.0625 0.023437 0.11719 0.078125 0.15625 0.050781 0.03125 0.14062 0.058594 0.26562 0.078125l0.26562 0.0625c0.25781 0.054687 0.44531 0.13672 0.5625 0.25 0.11328 0.10547 0.17188 0.25781 0.17188 0.45312 0 0.27344-0.078125 0.47656-0.23438 0.60938-0.15625 0.125-0.39844 0.1875-0.71875 0.1875-0.15625 0-0.3125-0.015625-0.46875-0.046875s-0.30859-0.070312-0.45312-0.125v-0.53125c0.14453 0.085938 0.28906 0.14844 0.4375 0.1875 0.14453 0.042969 0.28516 0.0625 0.42188 0.0625 0.13281 0 0.23828-0.019531 0.3125-0.0625 0.070312-0.050781 0.10938-0.11719 0.10938-0.20312 0-0.070313-0.027344-0.12891-0.078125-0.17188-0.054688-0.039062-0.15234-0.078125-0.29688-0.10938l-0.23438-0.046875c-0.24219-0.050781-0.41797-0.13281-0.53125-0.25-0.11719-0.11328-0.17188-0.26562-0.17188-0.45312 0-0.25 0.078125-0.4375 0.23438-0.5625s0.37891-0.1875 0.67188-0.1875c0.13281 0 0.26953 0.011719 0.40625 0.03125 0.14453 0.011719 0.28906 0.039063 0.4375 0.078125z"/>
  </symbol>
  <symbol id="v" overflow="visible">
   <path d="m0.29688-2.4219h0.79688l0.54688 1.2969 0.5625-1.2969h0.78125v2.4219h-0.57812v-1.7656l-0.5625 1.2969h-0.39062l-0.5625-1.2969v1.7656h-0.59375z"/>
  </symbol>
  <symbol id="i" overflow="visible">
   <path d="m0.26562-0.70312v-1.1094h0.57812v0.1875 0.375 0.28125 0.32812c0.007812 0.0625 0.023438 0.10547 0.046875 0.125 0.019531 0.042969 0.046875 0.074219 0.078125 0.09375 0.039062 0.023437 0.085938 0.03125 0.14062 0.03125 0.125 0 0.21875-0.046875 0.28125-0.14062 0.070313-0.09375 0.10938-0.22266 0.10938-0.39062v-0.89062h0.57812v1.8125h-0.57812v-0.26562c-0.085938 0.10547-0.17969 0.18359-0.28125 0.23438-0.09375 0.050781-0.19922 0.078125-0.3125 0.078125-0.21094 0-0.37109-0.0625-0.48438-0.1875-0.10547-0.13281-0.15625-0.32031-0.15625-0.5625z"/>
  </symbol>
  <symbol id="u" overflow="visible">
   <path d="m1.6875-1.75v0.4375c-0.125-0.050781-0.24609-0.085938-0.35938-0.10938-0.11719-0.03125-0.22656-0.046875-0.32812-0.046875-0.10547 0-0.18359 0.015625-0.23438 0.046875-0.054687 0.023437-0.078125 0.0625-0.078125 0.125 0 0.042969 0.015625 0.078125 0.046875 0.10938 0.039063 0.023438 0.11328 0.039062 0.21875 0.046875l0.10938 0.015625c0.28906 0.042969 0.48828 0.10547 0.59375 0.1875 0.10156 0.085938 0.15625 0.21875 0.15625 0.40625s-0.074219 0.33594-0.21875 0.4375c-0.13672 0.09375-0.34375 0.14062-0.625 0.14062-0.125 0-0.25-0.011719-0.375-0.03125-0.125-0.019531-0.25781-0.046875-0.39062-0.078125v-0.4375c0.11328 0.054688 0.22656 0.09375 0.34375 0.125 0.125 0.023438 0.25 0.03125 0.375 0.03125 0.11328 0 0.19531-0.015625 0.25-0.046875 0.0625-0.03125 0.09375-0.078125 0.09375-0.14062 0-0.050781-0.023437-0.085938-0.0625-0.10938-0.042969-0.019531-0.12109-0.039063-0.23438-0.0625l-0.09375-0.015625c-0.26172-0.03125-0.44531-0.085938-0.54688-0.17188-0.10547-0.082031-0.15625-0.21875-0.15625-0.40625s0.0625-0.32812 0.1875-0.42188c0.13281-0.09375 0.33594-0.14062 0.60938-0.14062 0.11328 0 0.22656 0.011719 0.34375 0.03125 0.11328 0.011719 0.23828 0.039063 0.375 0.078125z"/>
  </symbol>
  <symbol id="t" overflow="visible">
   <path d="m0.28125-2.5156h0.57812v2.5156h-0.57812z"/>
  </symbol>
  <symbol id="s" overflow="visible">
   <path d="m0.28125-1.8125h0.57812v1.8125h-0.57812zm0-0.70312h0.57812v0.46875h-0.57812z"/>
  </symbol>
  <symbol id="h" overflow="visible">
   <path d="m1.4688-2.5156v0.375h-0.3125c-0.085938 0-0.14062 0.015625-0.17188 0.046875s-0.046875 0.085938-0.046875 0.15625v0.125h0.48438v0.42188h-0.48438v1.3906h-0.59375v-1.3906h-0.28125v-0.42188h0.28125v-0.125c0-0.19531 0.054688-0.34375 0.17188-0.4375 0.11328-0.09375 0.28516-0.14062 0.51562-0.14062z"/>
  </symbol>
  <symbol id="g" overflow="visible">
   <path d="m2.0938-1.1094v1.1094h-0.57812v-0.84375c0-0.15625-0.007813-0.25781-0.015625-0.3125 0-0.0625-0.011719-0.10938-0.03125-0.14062-0.023438-0.039063-0.054688-0.070313-0.09375-0.09375-0.042969-0.019531-0.085938-0.03125-0.125-0.03125-0.125 0-0.22656 0.046875-0.29688 0.14062-0.0625 0.09375-0.09375 0.22656-0.09375 0.39062v0.89062h-0.57812v-2.5156h0.57812v0.96875c0.082031-0.10156 0.17188-0.17969 0.26562-0.23438 0.10156-0.050781 0.21094-0.078125 0.32812-0.078125 0.21875 0 0.37891 0.070313 0.48438 0.20312 0.10156 0.125 0.15625 0.30859 0.15625 0.54688z"/>
  </symbol>
  <symbol id="e" overflow="visible">
   <path d="m1.1406-1.4375c-0.125 0-0.22656 0.046875-0.29688 0.14062-0.0625 0.085937-0.09375 0.21484-0.09375 0.39062 0 0.17969 0.03125 0.3125 0.09375 0.40625 0.070312 0.09375 0.17188 0.14062 0.29688 0.14062s0.21875-0.046875 0.28125-0.14062c0.070313-0.09375 0.10938-0.22656 0.10938-0.40625 0-0.17578-0.039062-0.30469-0.10938-0.39062-0.0625-0.09375-0.15625-0.14062-0.28125-0.14062zm0-0.42188c0.3125 0 0.55469 0.089844 0.73438 0.26562 0.17578 0.16797 0.26562 0.39844 0.26562 0.6875 0 0.30469-0.089844 0.53906-0.26562 0.70312-0.17969 0.16797-0.42188 0.25-0.73438 0.25s-0.55859-0.082031-0.73438-0.25c-0.17969-0.16406-0.26562-0.39844-0.26562-0.70312 0-0.28906 0.085937-0.51953 0.26562-0.6875 0.17578-0.17578 0.42188-0.26562 0.73438-0.26562z"/>
  </symbol>
  <symbol id="r" overflow="visible">
   <path d="m1.9531-1.5156c0.070313-0.10156 0.16016-0.1875 0.26562-0.25 0.10156-0.0625 0.21094-0.09375 0.32812-0.09375 0.20703 0 0.36328 0.070313 0.46875 0.20312 0.11328 0.125 0.17188 0.30859 0.17188 0.54688v1.1094h-0.57812v-0.9375-0.046875-0.0625c0-0.13281-0.023437-0.22656-0.0625-0.28125-0.03125-0.0625-0.089844-0.09375-0.17188-0.09375-0.11719 0-0.20312 0.046875-0.26562 0.14062-0.054687 0.09375-0.085937 0.22656-0.09375 0.39062v0.89062h-0.57812v-0.9375c0-0.20703-0.015625-0.33594-0.046875-0.39062-0.03125-0.0625-0.09375-0.09375-0.1875-0.09375-0.11719 0-0.20312 0.046875-0.26562 0.14062-0.054688 0.09375-0.078125 0.22656-0.078125 0.39062v0.89062h-0.57812v-1.8125h0.57812v0.26562c0.070313-0.10156 0.14844-0.17969 0.23438-0.23438 0.09375-0.050781 0.19531-0.078125 0.3125-0.078125 0.125 0 0.23438 0.03125 0.32812 0.09375s0.16406 0.14844 0.21875 0.25z"/>
  </symbol>
  <symbol id="q" overflow="visible">
   <path d="m0.29688-2.4219h0.70312l0.875 1.6562v-1.6562h0.59375v2.4219h-0.70312l-0.875-1.6562v1.6562h-0.59375z"/>
  </symbol>
  <symbol id="p" overflow="visible">
   <path d="m2.0938-1.1094v1.1094h-0.57812v-0.84375c0-0.15625-0.007813-0.25781-0.015625-0.3125 0-0.0625-0.011719-0.10938-0.03125-0.14062-0.023438-0.039063-0.054688-0.070313-0.09375-0.09375-0.042969-0.019531-0.085938-0.03125-0.125-0.03125-0.125 0-0.22656 0.046875-0.29688 0.14062-0.0625 0.09375-0.09375 0.22656-0.09375 0.39062v0.89062h-0.57812v-1.8125h0.57812v0.26562c0.082031-0.10156 0.17188-0.17969 0.26562-0.23438 0.10156-0.050781 0.21094-0.078125 0.32812-0.078125 0.21875 0 0.37891 0.070313 0.48438 0.20312 0.10156 0.125 0.15625 0.30859 0.15625 0.54688z"/>
  </symbol>
  <symbol id="o" overflow="visible">
   <path d="m0.29688-2.4219h1.0469c0.30078 0 0.53516 0.074219 0.70312 0.21875 0.16406 0.13672 0.25 0.32812 0.25 0.57812s-0.085937 0.44531-0.25 0.57812c-0.16797 0.13672-0.40234 0.20312-0.70312 0.20312h-0.42188v0.84375h-0.625zm0.625 0.45312v0.67188h0.34375c0.125 0 0.21875-0.023437 0.28125-0.078125 0.070313-0.0625 0.10938-0.14453 0.10938-0.25 0-0.10156-0.039062-0.1875-0.10938-0.25-0.0625-0.0625-0.15625-0.09375-0.28125-0.09375z"/>
  </symbol>
  <symbol id="n" overflow="visible">
   <path d="m0.28125-1.8125h0.57812v1.7812c0 0.23828-0.058594 0.42188-0.17188 0.54688-0.11719 0.13281-0.28906 0.20312-0.51562 0.20312h-0.28125v-0.39062h0.09375c0.11328 0 0.19141-0.027344 0.23438-0.078125 0.039062-0.042969 0.0625-0.13672 0.0625-0.28125zm0-0.70312h0.57812v0.46875h-0.57812z"/>
  </symbol>
  <symbol id="m" overflow="visible">
   <path d="m1.7344-1.75v0.46875c-0.074219-0.050781-0.15234-0.085938-0.23438-0.10938-0.074219-0.03125-0.15234-0.046875-0.23438-0.046875-0.16797 0-0.29688 0.046875-0.39062 0.14062-0.085938 0.09375-0.125 0.22656-0.125 0.39062 0 0.16797 0.039062 0.30469 0.125 0.40625 0.09375 0.09375 0.22266 0.14062 0.39062 0.14062 0.082031 0 0.16406-0.015625 0.25-0.046875 0.082031-0.03125 0.15625-0.070312 0.21875-0.125v0.48438c-0.085937 0.03125-0.17188 0.050781-0.26562 0.0625-0.09375 0.019531-0.1875 0.03125-0.28125 0.03125-0.32422 0-0.57812-0.082031-0.76562-0.25-0.1875-0.16406-0.28125-0.39844-0.28125-0.70312 0-0.30078 0.09375-0.53516 0.28125-0.70312 0.1875-0.16406 0.44141-0.25 0.76562-0.25 0.09375 0 0.1875 0.011719 0.28125 0.03125 0.09375 0.011719 0.17969 0.039063 0.26562 0.078125z"/>
  </symbol>
 </defs>
 <g>
  <path d="m365.02 356.92c3.9297-8.7891-12.367-14.367-18.605-11.059-1.1055 4.9922 0.46484 5.7617 5.7891 7.8633 4.1602 1.6484 8.7188 2.793 12.82 3.1953zm-59.414 127.01c-3.8828-1.6797-13.117-5.6367-15.598-9.0625-2.9102-1.3086-3.2656-1.543-4.1211-4.3438-8.6719-4.8398-13.824-30.434-12.059-45.566 1.6016-13.652 3.8281-13.938 10.762-22.898 3.2891-4.2578 11.488-15.152 13.414-21.012l2.5273-7.9258c-3.0508-3.207-3.7109-4.7109-9.9219-6.0703-0.53516 0.32422-1.5625 0.93359-2.3828 1.4141l-2.5195 1.4023c-0.046875-0.19141-0.44922 0.25-0.6875 0.35156-1.2617 2.0781 0.39844 0.24609-1.6797 1.8516-1.1523 0.89844-0.78516 0.48438-2.0117 1.0664-0.76562 1.9648-4.6367 4.5312-8.6445 9.1992-3.1758 3.6992-5.8789 6.832-8.6641 9.9531-10.789 12.125-26.98 22.348-44.73 21.27-11.562-0.69922-17.777-3.2344-26.668-9.457-5.5234-3.332-9.9922-10.285-15.352-14.848-24.434-20.816-46.695-1.3828-45.988-40.062 4.4844 4.2344 2.8633 3.9609 10.828 7.3164 11.164 4.7031 35.352 10.027 46.816 11.762l19.387-2.1289c3.2812-0.84766 3.7422-1.0586 5.0781-3.2148-4.8867-6.4102-19.789-5.8867-27.938-6.7188-10.973-1.125-51.074-6.1523-58.555-11.25-5.0586-3.4453-12.176-12.297-12.688-19.672l-0.66016-0.89453c-0.058593-0.11328-0.23047-0.36328-0.29297-0.49609-4.1875-8.4062-2.7656-26.562-0.66016-35.953 3.2734-14.656 9.1797-27.613 12.727-42.273l1.7344 4.6445c0.36328 1.6602 0.62891 2.9102 1.0898 4.7305 1.2617 4.9883 3.5898 12.984 6.0195 17.129 10 17.125 26.832 26.246 31.809 32.051 3.0312 1.6289 4.8555 3.5508 7.4922 5.7344 2.3672 1.957 5.7461 3.5039 7.5781 5.7266 3.0625 0.77344 4.9336 1.5078 6.3906 3.7617 9.4961 1.4883 27.848 11.84 34.395 3.6992 2.3477-7.2109-15.828-16.727-22.441-21.852-8.7891-6.8203-18.262-12.645-27.031-19.414-11.172-6.1719-43.031-35.109-45.27-43.938-1.0859-4.2656 3.5195-20.906 6.3828-23.289 1.8867-10.723 18.184-22.176 23.844-26.582 10.484-8.1562 17.043-8.4922 26.086-20.754 6.375-14.848-5.6758-12.949 20.637-33.172l4.8164-2.8555c3.043-5.793 36.039-16.039 55.797-30.578l4.043-2.625c-3.75 8.5273-6.5664 9.2852-7.1094 20.559-0.36328 7.6992-1.125 14.953-1.6484 22.52-0.48438 7.0312-1.4805 15.219-1.7188 22.586l2.9688 41.234c1.457 7.1289 4.9922 11.324 8.1562 16.613 4 6.707 9.2266 24.91 18.156 31.734l3.5586 1.5469 2.7305-1.4609c-0.82812-3.7383-0.17187-5.4492-1.5742-9.4648l-8.5781-24.074c-2.707-8.4922-8.1875-24.52-9.082-33.727-0.88672-2.0977-1.0234-14.711-2.9219-23.566-1.6484-7.7266-4.8945-15.465-2.7656-24.895 1.6211-7.1641 6.4023-39.211 9.4102-43.91 1.5625-2.4414 7.9961-5.457 9.9805-5.8594 2.3008-1.6133 1.4883-1.0977 4.4961-1.9844l12.707-4.2656c5.2188-1.7852 10.926-3.8242 17.469-4.2656 7.168-0.48438 13.082 0.41016 20.32 0.48828 8.9375 0.09375 11.391-2.918 17.262-4.9336-4.4062 6.8594-7.5195 9.1992-11.555 18.48-4.7617 10.965-17.086 61.195-19.512 72.941-1.7461 8.4609-2.1758 15.102-1.5273 22.734 1.5156 17.898-0.14062 42.68 15.922 54.605 13.035 4.7617 19.949 6.5352 17.734-11.027-1.5-11.867-10.41-48.117-11.488-57.75-0.69922-6.3438-1.5078-26.574-0.48828-32.441 0.19141-10.152 1.2031-15.98 3.6758-26.918 0.60156-9.5781 7.625-38.07 14.988-47.84 1.6797-2.2344 2.1484-3.1953 4.2812-3.0547 3.6836-2.8906 13.043-3.6055 18.578-3.5117 10.219 0.17188 27.457-3.0156 37.66-3.9141 5.4961-0.48828 15.391 0.28516 20.688 1.0859l-13.035 9.5234c-1.5938 4.0547-5.4492 9.5859-7.7734 14.758-2.4688 5.4883-5.0859 9.9492-7.9648 14.883-7.625 13.082-8.1875 20.172-13.719 33.348-4.9492 19.188-11.613 38.125-10.016 56.652 0.60937 7.0312 1.0312 10.934 9.4766 12.602l1.8594-2.2422c4.0938-10.113 3.2617-26.066 4.6758-36.754 1.793-13.586 4.9062-26.316 8.2148-40.156 1.6055-7.0703 3.1094-15.543 6.3164-21.27 3.2031-5.707 6.1328-10.793 9.6484-16.848 6.2578-10.762 9.1875-13.434 17.496-20.875 2.8516-2.5547 3.9492-3.6641 8.4609-2.3398 0.21875-0.074219 0.61328-0.33594 0.67578-0.11719l6.7344 0.69531c2.7773 0.5625 5.4492 1.1836 8.1484 2.125 4.4102 1.5273 12.402 2.4414 14.781 5.8398 3.625 0.73437 1.8242 0.40234 2.3281 1.707 3.2227 0.75391 3.293 0.9375 5.8477 3.3477-15.02 2.4062-1.3633-0.76562-15.617 3.8281-8.1289 2.6211-7.4297 1.7734-12.145 10.477-5.5703 10.293-13.09 22.324-16.594 33.766l-1.2695 3.5234c-1.1562 4.4922-2.3398 9.043-3.4258 13.551-1.1367 4.7539-0.97266 9.0547-1.957 12.824 2.2422 2.4336 2.6719 3.8711 7.2695 3.7227 1.8398-2.3594 11.105-14.242 13.594-15.457 1.2109-4.2383 6.125-10.055 8.6914-14.617 2.957-5.2656 5.7617-11.086 8.6133-16.43 2.4062-4.4961 12.062-22.496 16.496-26.246 3.5469-2.9961 0.72656-1.543 3.4258-1.375 1.8906-0.98047-1.2812-1 2.9688-0.46875 1.5195 0.18359 1.7383 0.45703 3.0234 1.0586 1.0664 0.50391 3.5859 1.9531 4.6484 2.6914 5.4961 1.8438 7.793 4.3906 12.863 6.1133 4.7422 1.6016 10.352 3.4609 15.168 4.6484 10.082-2.832 5.8203-3.8047 12.23-4.7773-4.7031 14.875-2.6445 19.168-3.9766 23.984 1.0234 1.3828 0.52734-0.18359 1.4336 2.5664 0.57422 1.7266 0.32422 0.96484 0.34375 2.5938l1.8789 3.0156c1.0859 2.5 0.78125 1.9375 0.82031 3.7695 2.1172 2.1016 2.6406 3.0742 3.207 6.2578 0.98047 1.6406 0.95312 2.2148 1.7148 4.1406l2.1836 4.3984c0.085937 0.16016 0.25781 0.44141 0.37109 0.67969 1.2578 0.79297 0.09375-0.125 1.4297 1.1055 4.0859 3.7422 6.6719 9.8672 1.0898 13.27-4.1289 12.559-30.242 26.105-42.801 32.008-3.5664 1.6719-5.2656 2.3672-8.5391 3.6914-3.418 1.3828-5.0195 3.1016-8.5977 2.8828-0.20312 0.16016-0.46484 0.13281-0.63672 0.44922l-2.5547 1.4297c-11.371 4.9883-51.609 12.559-49.105 23.125 1.7773 2.5469 2.2695 3.5391 6.4609 4.7773 11.066 2.2109 15.312 0.70703 24.996-1.1562 8.3789-1.6211 14.703-5.1055 21.238-5.8594 2.5391-1.7188 11.008-3.3008 19.98-8.6367 7.125-4.2344 9.5625-3.9141 18.758-10.945 8.0234-6.1367 27.535-19.961 27.754-35.656 2.0625 1.918 5.6562 17.824 5.5703 20.531 3.1875 3.8633 5.668 21.008 5.9414 25.234 5.4648 11.211-16.074 24.598-26.266 31.902-2.2305 1.6016-4.0078 2.25-6.5352 3.3281-1.2695 0.54297-1.9375 0.61328-3.1211 1.4297-3.7305 2.5469-2.3203 0.78516-0.80859 2.3594 1.8203-1.4336 11.324-4.1797 17.621-7.9688 7.8125-4.6953 8.5977-8.8711 14.551-13.809l-4.1133 19.246c0.078124 0.19922 0.16016 0.32422 0.11328 0.63672-1.5547 10.371 0.074219 31.297 1.3281 41.703 1.5352 12.711-6.7148 9.1094-16.762 15.703-8.8945 5.832-24.586 12.496-34.551 15.285-20.277 5.6758-61.242 6.2852-84.121 4.6562-5.0977-0.36328-10.332-1.2891-15.457-1.4766-4.9805-0.18359-10.812-0.62891-15.617-2.0625-5.1211 2.375-11.047-1.8789-12.625 5.793 8.2539 9.3516 27.848 6.3711 39.527 7.1367l37.965-4.2383c1.7852-0.75391 22.27-1.1914 26.219-1.3555 17.996-0.74219 47.59-3.8477 62.668-13.312 5.5312-3.4727 7.25-6.0977 9.9805-7.5586-1.4141 5.5234-3.9688 7.8789-5.5312 14.883-1.2812 5.7695-2.7656 11.48-4.1797 17.223l-1.2773 4.5234-3.1367 17.508c-0.77344 5.1719-1.5195 8.2266-3.9688 12.559l-3.2539 4.0742c-2.4414 2.2031-3.3086 2.4531-6.8906 3.1016-2.9648 0.83203-3.5664 0.92578-6.6602 0.98437-4.0742 1.5195-43.641 1.793-48.754 0.019532l-1.4961 0.41797c-0.44922 0.085938-0.78516 0.15234-1.0469 0.20313-0.13281 0.011718-0.29297 0.027343-0.46875 0.046874-7.5352 0.74219-39.223-3.0078-43.469-4.75-0.48828 0.21094-0.66797 0.33594-0.71484 0.40234-0.13281-0.046875-0.48438-0.09375-1.2891-0.11328-0.31641-0.011719-0.52344-0.011719-0.64844-0.007813-0.125-0.03125-0.40234-0.078124-0.94531-0.16016-0.875-0.125-2.6523-0.61328-3.6523-0.83203-2.4141-0.50781-5.5039-0.9375-7.5156-1.2578-12.508-1.9766-37.012-10.086-42.211-6.2109-0.16016 3.1953-0.20312 3.0703 2.8789 5.1055 1.4414 0.95312 4.2734 2.3477 6.0469 3.2656 3.6641 1.8984 8.6523 4.2148 12.449 5.7148 8.0156 3.1758 20.305 5.6367 26.465 8.9805 0.21875-0.078125 0.52734-0.125 0.67969-0.14062l4.8477 0.4375c1.7539 0.41016 3.6914 0.98047 5.4766 1.4297 24.156 6.1133 16.18 1.8516 32.117 3.8633l8.9961 0.64062c10.398-1.2227 20.273-0.66797 30.242-2.6719 12.375-2.4922 15.723-5.5234 24.852-10.617l-16.914 32.027c-2.4414 4.75-5.418 10.141-8.207 14.094-3.3672 4.7617-5.8086 6.6406-9.3594 11.156-9.9336 12.605-9.9062 10.723-26.211 10.926-2.4141 2.1836-6.8242 6.1641-10.953 10.297-2.5859 2.5938-27.523 31.113-33.473 31.418-2.9023 2.7266-12.184 6.7344-16.699 6.2031-2.5938 1.3047-5.6094 1.3711-8.5977 1.6133-2.6055 0.21875-5.457 0.57422-8.0742 0.48828-4.8281-0.16016-10.762-2.2734-13.148-6.6719-3.1016-1.5938-1.7656-0.67969-2.5664-2.8828-2.7852-0.84766-1.6914 0.33203-2.7188-2.4688l-5.6094-2.1875c-3.1562 3.7227-8.3867 7.5781-12.527 10.941-3.0625 2.4883-10.371 6.8242-15.102 6.1523-1.1562 0.70703-0.27734 0.37891-1.9766 0.97266-0.6875 0.23828-1.4766 0.39063-2.0977 0.50391-1.7578 0.31641-2.6328 0.16016-4.1953 0.60156l-6.5078-1.6211c-4.0742-4.1523-12.078-7.1055-17.605-10.055l-18.355-9.293zm46.703-41.656c-2.7305-2.9688-5.6758-7.2344-9.6445-7.3633-8.4453-0.27734-5.0859 11.695-5.1641 14.281l5.7266 10.094c7.125 10.18 10.629 19.633 24.613 23.488 4.2148 0 9.8477-0.20312 12.316-3.6641-1.2617-1.9844-2.8359-3.5312-4.457-5.5234-7.707-9.4922-17.887-25.32-23.387-31.312zm0.26953-169.08c0.33203-5.2656-0.03125-12.105-2.625-15.512-3.0352-3.9883-10.742-6.582-15.961-6-2.0977 3.2031-1.2617 5.2188-1.0859 8.7188 3.6172 7.8359 3.9023 16.027 15.961 17.152 1.4961-1.2773 2.5352-2.1172 3.7109-4.3594zm-113.27-12.766-26.191-37.297c-7.8125-13.891-11.762-14.293-18.574-31.113-2.6328-6.4961-4.3398-10.188-5.8984-17.164-2.0117-8.9492-1.0117-6.4297-3.3984-7.9297-1.8984 11.266-0.76562 21.809 1.4102 31.359 1.1172 4.9141 3.1211 9.1328 4.5977 13.395 1.5547 4.5039 3.6836 8.3867 4.7344 12.375 3.2266 6.9648 5.0195 15.629 8.3555 22.086 3.3398 6.4766 6.0703 14.082 13.551 18.594 16.258 9.8203 27.094 28.688 40.242 27.211 0.18359-5.9062-5.4453-13.203-8.2461-17.129-3.6133-5.0586-6.832-9.3398-10.574-14.379zm163.32 156.74c-8.5859-1.6719-16.117-9.168-25.352-9.2148-1.6328 4.5391 3.2266 8.5312 6.5547 11.488 8.8633 7.8594 26.402 20.062 36.387 25.801 25.266 14.531 38.793 11.117 61.062 5.4648-1.4609-2.3164-5.5938-2.957-9.4922-4.1328-10.398-3.1367-58.82-22.113-66.996-27.477zm26.141-151c-5.3516 1.8516-5.7695 3.5664-4.2188 9.0039 8.1172 6.6875 13.055 4.582 22.012 3.625 8.5391-0.91406 13.508-1.9961 21.207-3.8477 0.35156-0.019531 0.73438-0.046875 1.1523-0.097656 0.027344-0.027344 0.039063-0.03125 0.039063 0 6.3555-0.74219 19.551-5.1133 23.691-7.3203 5.5156-2.9414 16.43-9.6094 23.883-10.555l0.85156-0.82812c-0.24609-1.0469-0.29688-1.543-0.29688-1.7266-0.054688 0.21875-0.3125 0.69531-1.4414 0.37109-0.19141-0.054687-2.0391-0.007813-2.7266-0.10547-3.4141 2.5859-6.1133 2.4336-10.715 3.1172l-36.75 4.1094c-9.9727 0.76172-27.945 1.2383-36.688 4.2656zm-104.43 40.117c4.4648-12.965-7.5-18.863-12.957-26.465-5.332-4.2734-8.7773-7.6406-16.039-6.2773-2.1562 8.6367 4.4375 17.641 8.0977 23.625 4.4375 7.2617 11.344 15.734 20.902 9.1133zm-28.832 23.355c4.2656-3.7109-10.809-16.324-18.34-15.234-0.46875 3.6367 0.16016 3.7891 2.2891 6.4102 2.7578 3.3984 11.289 12.965 16.051 8.8242z" fill-rule="evenodd"/>
  <use x="70" y="569.921875" xlink:href="#w"/>
  <use x="72.425781" y="569.921875" xlink:href="#d"/>
  <use x="74.058594" y="569.921875" xlink:href="#b"/>
  <use x="76.300781" y="569.921875" xlink:href="#c"/>
  <use x="78.53125" y="569.921875" xlink:href="#a"/>
  <use x="80.113281" y="569.921875" xlink:href="#b"/>
  <use x="82.355469" y="569.921875" xlink:href="#f"/>
  <use x="85.875" y="569.921875" xlink:href="#l"/>
  <use x="88.242188" y="569.921875" xlink:href="#k"/>
  <use x="91.550781" y="569.921875" xlink:href="#j"/>
  <use x="93.929688" y="569.921875" xlink:href="#a"/>
  <use x="96.664063" y="569.921875" xlink:href="#v"/>
  <use x="99.953125" y="569.921875" xlink:href="#i"/>
  <use x="102.308594" y="569.921875" xlink:href="#u"/>
  <use x="104.277344" y="569.921875" xlink:href="#f"/>
  <use x="106.644531" y="569.921875" xlink:href="#c"/>
  <use x="108.875" y="569.921875" xlink:href="#t"/>
  <use x="110.011719" y="569.921875" xlink:href="#s"/>
  <use x="111.144531" y="569.921875" xlink:href="#h"/>
  <use x="112.582031" y="569.921875" xlink:href="#c"/>
  <use x="114.8125" y="569.921875" xlink:href="#g"/>
  <use x="70" y="573.226562" xlink:href="#h"/>
  <use x="71.4375" y="573.226562" xlink:href="#d"/>
  <use x="73.070312" y="573.226562" xlink:href="#e"/>
  <use x="75.339844" y="573.226562" xlink:href="#r"/>
  <use x="79.9375" y="573.226562" xlink:href="#a"/>
  <use x="81.519531" y="573.226562" xlink:href="#g"/>
  <use x="83.875" y="573.226562" xlink:href="#b"/>
  <use x="87.269531" y="573.226562" xlink:href="#q"/>
  <use x="90.035156" y="573.226562" xlink:href="#e"/>
  <use x="92.308594" y="573.226562" xlink:href="#i"/>
  <use x="94.664062" y="573.226562" xlink:href="#p"/>
  <use x="98.167969" y="573.226562" xlink:href="#o"/>
  <use x="100.59375" y="573.226562" xlink:href="#d"/>
  <use x="102.222656" y="573.226562" xlink:href="#e"/>
  <use x="104.496094" y="573.226562" xlink:href="#n"/>
  <use x="105.628906" y="573.226562" xlink:href="#b"/>
  <use x="107.871094" y="573.226562" xlink:href="#m"/>
  <use x="109.832031" y="573.226562" xlink:href="#a"/>
 </g>
</svg>
