<?xml version="1.0" encoding="UTF-8"?>
<svg width="700pt" height="700pt" version="1.1" viewBox="0 0 700 700" xmlns="http://www.w3.org/2000/svg" xmlns:xlink="http://www.w3.org/1999/xlink">
 <defs>
  <symbol id="l" overflow="visible">
   <path d="m29.312-1.75c-1.5117 0.78125-3.0898 1.3711-4.7344 1.7656-1.6367 0.40625-3.3398 0.60938-5.1094 0.60938-5.3125 0-9.5273-1.4844-12.641-4.4531-3.1055-2.9688-4.6562-7-4.6562-12.094s1.5508-9.125 4.6562-12.094c3.1133-2.9688 7.3281-4.4531 12.641-4.4531 1.7695 0 3.4727 0.19922 5.1094 0.59375 1.6445 0.39844 3.2227 0.99219 4.7344 1.7812v6.5938c-1.5312-1.0391-3.0391-1.8008-4.5156-2.2812-1.4805-0.48828-3.0391-0.73438-4.6719-0.73438-2.9375 0-5.2461 0.94531-6.9219 2.8281-1.6797 1.875-2.5156 4.4648-2.5156 7.7656 0 3.293 0.83594 5.8828 2.5156 7.7656 1.6758 1.875 3.9844 2.8125 6.9219 2.8125 1.6328 0 3.1914-0.23828 4.6719-0.71875 1.4766-0.48828 2.9844-1.2539 4.5156-2.2969z"/>
  </symbol>
  <symbol id="d" overflow="visible">
   <path d="m21.453-17.406c-0.67969-0.3125-1.3516-0.53906-2.0156-0.6875-0.65625-0.15625-1.3203-0.23438-1.9844-0.23438-1.9688 0-3.4844 0.63281-4.5469 1.8906-1.0547 1.2617-1.5781 3.0703-1.5781 5.4219v11.016h-7.6562v-23.922h7.6562v3.9219c0.97656-1.5625 2.1016-2.7031 3.375-3.4219 1.2812-0.71875 2.8125-1.0781 4.5938-1.0781 0.25 0 0.52344 0.011719 0.82812 0.03125 0.30078 0.023438 0.73438 0.070312 1.2969 0.14062z"/>
  </symbol>
  <symbol id="b" overflow="visible">
   <path d="m27.562-12.031v2.1875h-17.891c0.1875 1.793 0.83203 3.1367 1.9375 4.0312 1.1133 0.89844 2.6719 1.3438 4.6719 1.3438 1.6016 0 3.25-0.23438 4.9375-0.70312 1.6875-0.47656 3.4219-1.2031 5.2031-2.1719v5.8906c-1.8047 0.6875-3.6094 1.2031-5.4219 1.5469-1.8125 0.35156-3.6211 0.53125-5.4219 0.53125-4.3359 0-7.7031-1.0977-10.109-3.2969-2.3984-2.207-3.5938-5.2969-3.5938-9.2656 0-3.9062 1.1758-6.9727 3.5312-9.2031 2.3633-2.2383 5.6094-3.3594 9.7344-3.3594 3.7578 0 6.7695 1.1367 9.0312 3.4062 2.2578 2.2617 3.3906 5.2812 3.3906 9.0625zm-7.8594-2.5312c0-1.457-0.42969-2.6289-1.2812-3.5156-0.84375-0.89453-1.9492-1.3438-3.3125-1.3438-1.4922 0-2.6992 0.41797-3.625 1.25-0.91797 0.83594-1.4922 2.0391-1.7188 3.6094z"/>
  </symbol>
  <symbol id="c" overflow="visible">
   <path d="m14.391-10.766c-1.5938 0-2.793 0.27344-3.5938 0.8125-0.80469 0.54297-1.2031 1.3398-1.2031 2.3906 0 0.96875 0.32031 1.7305 0.96875 2.2812 0.64453 0.54297 1.5469 0.8125 2.7031 0.8125 1.4375 0 2.6445-0.51562 3.625-1.5469 0.98828-1.0312 1.4844-2.3203 1.4844-3.875v-0.875zm11.688-2.8906v13.656h-7.7031v-3.5469c-1.0312 1.4492-2.1875 2.5078-3.4688 3.1719s-2.8398 1-4.6719 1c-2.4805 0-4.4961-0.72266-6.0469-2.1719-1.543-1.4453-2.3125-3.3203-2.3125-5.625 0-2.8125 0.96094-4.8672 2.8906-6.1719 1.9375-1.3125 4.9688-1.9688 9.0938-1.9688h4.5156v-0.60938c0-1.207-0.48047-2.0938-1.4375-2.6562-0.94922-0.5625-2.4375-0.84375-4.4688-0.84375-1.6367 0-3.1562 0.16797-4.5625 0.5-1.4062 0.32422-2.7188 0.8125-3.9375 1.4688v-5.8281c1.6445-0.40625 3.2891-0.70703 4.9375-0.90625 1.6562-0.20703 3.3047-0.3125 4.9531-0.3125 4.3203 0 7.4375 0.85547 9.3438 2.5625 1.9141 1.6992 2.875 4.4609 2.875 8.2812z"/>
  </symbol>
  <symbol id="i" overflow="visible">
   <path d="m12.031-30.719v6.7969h7.875v5.4688h-7.875v10.141c0 1.1172 0.21875 1.8711 0.65625 2.2656 0.4375 0.38672 1.3125 0.57812 2.625 0.57812h3.9375v5.4688h-6.5625c-3.0234 0-5.1641-0.62891-6.4219-1.8906-1.2617-1.2578-1.8906-3.3984-1.8906-6.4219v-10.141h-3.7969v-5.4688h3.7969v-6.7969z"/>
  </symbol>
  <symbol id="a" overflow="visible">
   <path d="m19.953-20.422v-12.812h7.6875v33.234h-7.6875v-3.4531c-1.0547 1.4062-2.2148 2.4375-3.4844 3.0938-1.2734 0.65625-2.7422 0.98438-4.4062 0.98438-2.9492 0-5.3711-1.1719-7.2656-3.5156-1.8867-2.3438-2.8281-5.3594-2.8281-9.0469s0.94141-6.7031 2.8281-9.0469c1.8945-2.3438 4.3164-3.5156 7.2656-3.5156 1.6562 0 3.1172 0.33594 4.3906 1 1.2812 0.65625 2.4453 1.6836 3.5 3.0781zm-5.0469 15.484c1.6445 0 2.8945-0.59766 3.75-1.7969 0.86328-1.1953 1.2969-2.9297 1.2969-5.2031 0-2.2812-0.43359-4.0195-1.2969-5.2188-0.85547-1.1953-2.1055-1.7969-3.75-1.7969-1.625 0-2.8711 0.60156-3.7344 1.7969-0.85547 1.1992-1.2812 2.9375-1.2812 5.2188 0 2.2734 0.42578 4.0078 1.2812 5.2031 0.86328 1.1992 2.1094 1.7969 3.7344 1.7969z"/>
  </symbol>
  <symbol id="h" overflow="visible">
   <path d="m16.406-4.9375c1.6328 0 2.8828-0.59766 3.75-1.7969 0.86328-1.1953 1.2969-2.9297 1.2969-5.2031 0-2.2812-0.43359-4.0195-1.2969-5.2188-0.86719-1.1953-2.1172-1.7969-3.75-1.7969-1.6367 0-2.8906 0.60547-3.7656 1.8125-0.875 1.1992-1.3125 2.9336-1.3125 5.2031 0 2.2617 0.4375 3.9961 1.3125 5.2031 0.875 1.1992 2.1289 1.7969 3.7656 1.7969zm-5.0781-15.484c1.0508-1.3945 2.2188-2.4219 3.5-3.0781 1.2812-0.66406 2.7539-1 4.4219-1 2.9453 0 5.3672 1.1719 7.2656 3.5156 1.8945 2.3438 2.8438 5.3594 2.8438 9.0469s-0.94922 6.7031-2.8438 9.0469c-1.8984 2.3438-4.3203 3.5156-7.2656 3.5156-1.668 0-3.1406-0.33594-4.4219-1s-2.4492-1.6914-3.5-3.0781v3.4531h-7.6562v-33.234h7.6562z"/>
  </symbol>
  <symbol id="g" overflow="visible">
   <path d="m0.53125-23.922h7.6562l6.4219 16.234 5.4688-16.234h7.6562l-10.062 26.188c-1.0117 2.6641-2.1953 4.5234-3.5469 5.5781-1.3438 1.0625-3.1211 1.5938-5.3281 1.5938h-4.4219v-5.0156h2.3906c1.3008 0 2.2422-0.21094 2.8281-0.625 0.59375-0.40625 1.0547-1.1484 1.3906-2.2188l0.20312-0.65625z"/>
  </symbol>
  <symbol id="f" overflow="visible">
   <path d="m23.375-5.8125h-12.859l-2.0312 5.8125h-8.2656l11.812-31.891h9.7969l11.812 31.891h-8.2656zm-10.812-5.9219h8.7344l-4.3594-12.688z"/>
  </symbol>
  <symbol id="e" overflow="visible">
   <path d="m27.734-14.562v14.562h-7.7031v-11.156c0-2.0625-0.046875-3.4844-0.14062-4.2656-0.085937-0.78125-0.24219-1.3594-0.46875-1.7344-0.30469-0.5-0.71094-0.88281-1.2188-1.1562-0.51172-0.28125-1.0938-0.42188-1.75-0.42188-1.5938 0-2.8516 0.61719-3.7656 1.8438-0.90625 1.2305-1.3594 2.9375-1.3594 5.125v11.766h-7.6562v-23.922h7.6562v3.5c1.1445-1.3945 2.3633-2.4219 3.6562-3.0781 1.3008-0.66406 2.7383-1 4.3125-1 2.7578 0 4.8516 0.85156 6.2812 2.5469 1.4375 1.6875 2.1562 4.1523 2.1562 7.3906z"/>
  </symbol>
  <symbol id="k" overflow="visible">
   <path d="m16.797-19.547c1.2891 0 2.2695-0.28125 2.9375-0.84375 0.67578-0.57031 1.0156-1.4141 1.0156-2.5312 0-1.0938-0.33984-1.9258-1.0156-2.5-0.66797-0.58203-1.6484-0.875-2.9375-0.875h-4.5625v6.75zm0.26562 13.953c1.6562 0 2.8984-0.34766 3.7344-1.0469 0.83203-0.69531 1.25-1.7539 1.25-3.1719 0-1.375-0.41797-2.4062-1.25-3.0938-0.82422-0.69531-2.0703-1.0469-3.7344-1.0469h-4.8281v8.3594zm7.6562-11.469c1.7578 0.51172 3.125 1.4609 4.0938 2.8438 0.96875 1.375 1.4531 3.0703 1.4531 5.0781 0 3.0742-1.043 5.3672-3.125 6.875-2.0742 1.5117-5.2305 2.2656-9.4688 2.2656h-13.656v-31.891h12.344c4.4258 0 7.6328 0.67188 9.625 2.0156 1.9883 1.3359 2.9844 3.4766 2.9844 6.4219 0 1.5547-0.36719 2.875-1.0938 3.9688-0.73047 1.0859-1.7812 1.8906-3.1562 2.4219z"/>
  </symbol>
  <symbol id="j" overflow="visible">
   <path d="m3.4219-9.3125v-14.609h7.6875v2.3906c0 1.293-0.011719 2.918-0.03125 4.875-0.011719 1.9609-0.015625 3.2656-0.015625 3.9219 0 1.9297 0.046875 3.3125 0.14062 4.1562 0.10156 0.84375 0.28125 1.4609 0.53125 1.8438 0.3125 0.5 0.71875 0.88672 1.2188 1.1562 0.50781 0.27344 1.0938 0.40625 1.75 0.40625 1.5938 0 2.8438-0.60938 3.75-1.8281 0.91406-1.2266 1.375-2.9297 1.375-5.1094v-11.812h7.6406v23.922h-7.6406v-3.4531c-1.1562 1.3867-2.3828 2.4141-3.6719 3.0781-1.2812 0.66406-2.6992 1-4.25 1-2.7734 0-4.8828-0.84766-6.3281-2.5469-1.4375-1.6953-2.1562-4.1602-2.1562-7.3906z"/>
  </symbol>
 </defs>
 <g>
  <path d="m156 442.14c1.4609 0.0625 2.9141 0.097656 4.3828 0.097656 31.578 0 65.031-14.883 96.801-36.18 45.352 42.523 91.551 54.477 129.01 54.477 46.898 0 80.105-18.609 80.711-18.961 2.5117-1.4531 4.1484-4.0508 4.3477-6.9492 0.21094-2.8945-1.0312-5.7031-3.3164-7.5l-49.691-39.113c-2.1953-1.7227-3-4.7422-1.9688-7.332 0.91016-2.2734 2.7227-3.2188 3.7031-3.5859 0.99609-0.36719 2.9844-0.79688 5.1523 0.35938l29.25 15.566c6.957 3.7031 15.207 4.2969 22.645 1.6641 7.4297-2.6406 13.43-8.3281 16.492-15.582 5.1445-12.223 1.1992-26.137-9.6094-33.828l-43.496-30.992c-2.125-1.5156-3.5352-3.7695-3.9648-6.3516-0.42969-2.582 0.18359-5.1641 1.6992-7.2891 2.9062-4.043 8.375-5.25 12.68-2.8086l32.402 18.148c6.3164 3.5352 13.605 4.3906 20.578 2.4141 6.957-1.9766 12.723-6.5469 16.23-12.871 5.8281-10.492 3.9648-23.73-4.5156-32.219l-27.359-27.359c-1.8477-1.8359-2.1094-4.7344-0.62891-6.8789 1.5664-2.25 4.5586-2.9766 6.9648-1.7148l40.844 21.473c3.0977 1.6172 6.8242 1.2617 9.5547-0.91797 2.7227-2.1797 3.875-5.7656 2.9648-9.1172-21.91-80.43 3.4297-136.61 3.6758-137.15 0.050782-0.12109 0.042969-0.25391 0.085938-0.375 0.23438-0.57031 0.32422-1.1641 0.42969-1.7773 0.097657-0.53516 0.24609-1.043 0.24609-1.5742 0-0.48047-0.14062-0.94531-0.22656-1.4336-0.11328-0.65625-0.21094-1.3047-0.46484-1.918-0.042969-0.11328-0.035157-0.22656-0.078125-0.33984-0.15625-0.33984-0.44531-0.55859-0.64062-0.86719-0.35156-0.55859-0.69141-1.1094-1.1641-1.582-0.41016-0.41016-0.89062-0.69922-1.375-1.0156-0.35938-0.23438-0.62109-0.57031-1.0234-0.76172-0.13281-0.0625-0.26172-0.042969-0.39453-0.097657-0.57031-0.23438-1.1562-0.31641-1.7578-0.42969-0.52344-0.097656-1.043-0.25391-1.5664-0.25391-0.5 0-0.98828 0.14844-1.4883 0.23437-0.64063 0.11328-1.2617 0.20313-1.8555 0.45313-0.11328 0.042968-0.23438 0.035156-0.33984 0.085937-0.57031 0.25391-56.719 25.594-137.17 3.6758-3.3516-0.92578-6.9375 0.24609-9.125 2.9648-2.1797 2.7227-2.5391 6.4648-0.91016 9.5469l21.473 40.863c1.2773 2.4141 0.54297 5.3984-1.7148 6.9492-2.1523 1.4805-5.0391 1.2148-6.8789-0.62891l-27.359-27.359c-8.4805-8.4805-21.727-10.344-32.219-4.5156-6.3281 3.5078-10.895 9.2734-12.871 16.23-1.9766 6.957-1.1211 14.262 2.4141 20.578l18.148 32.402c2.4219 4.332 1.2266 9.7812-2.8164 12.68-2.1172 1.5234-4.7266 2.1094-7.2812 1.6992-2.582-0.42969-4.8398-1.8281-6.3516-3.9648l-30.992-43.496c-7.6992-10.797-21.641-14.742-33.82-9.5977-7.2617 3.0547-12.941 9.0742-15.582 16.492-2.6406 7.4219-2.0312 15.68 1.6641 22.637l15.559 29.262c1.1562 2.1719 0.71875 4.1562 0.35937 5.1367-0.35937 0.98828-1.3047 2.7812-3.5859 3.7031-2.5742 1.0312-5.6094 0.23437-7.3242-1.9609l-39.121-49.691c-1.793-2.2734-4.6211-3.4492-7.5-3.3164-2.8945 0.21094-5.5039 1.8359-6.957 4.3594-0.62109 1.0781-59.867 106.93 34.66 208.77-28.191 18.586-57.262 31.316-84.141 31.316-1.2422 0-2.4766-0.027344-3.7188-0.078125-4.5312-0.070312-8.918 3.5156-9.125 8.3555-0.20312 4.832 3.5312 8.918 8.3633 9.1367zm63.426-236.58 30.363 38.57c6.4922 8.25 17.875 11.289 27.598 7.375 6.2734-2.5195 11.191-7.6055 13.512-13.938 2.3203-6.3438 1.8203-13.406-1.3477-19.363l-15.559-29.262c-1.418-2.668-1.6445-5.7031-0.62891-8.5586 1.0156-2.8438 3.0977-5.0586 5.8984-6.2305 4.5938-1.9258 9.8711-0.44531 12.773 3.6328l30.992 43.496c4.2344 5.9492 10.535 9.8789 17.734 11.078 7.1914 1.1992 14.43-0.5 20.352-4.75 11.277-8.1016 14.664-23.336 7.8672-35.445l-18.141-32.391c-1.25-2.2227-1.5469-4.7969-0.85938-7.2461 0.69141-2.4492 2.3086-4.4805 4.5312-5.7227 3.7031-2.0469 8.3633-1.3984 11.348 1.5938l27.359 27.359c7.8242 7.7969 20.082 8.9258 29.172 2.6602 9.5547-6.5703 12.68-19.266 7.2812-29.516l-12.539-23.859c51.02 10.184 90.711 3.2031 112.28-2.9141-6.125 21.57-13.109 61.258-2.9141 112.28l-23.859-12.539c-10.23-5.3906-22.934-2.2578-29.516 7.2812-6.2734 9.1016-5.1523 21.375 2.668 29.18l27.359 27.359c2.9844 2.9844 3.6406 7.6562 1.5938 11.34-1.2422 2.2305-3.2734 3.832-5.7148 4.5312-2.457 0.69141-5.0312 0.38672-7.2461-0.85938l-32.391-18.148c-12.109-6.7734-27.344-3.4023-35.453 7.8672-4.2539 5.9219-5.9492 13.16-4.75 20.359 1.1992 7.2031 5.1289 13.5 11.078 17.734l43.496 30.992c4.0781 2.9062 5.5742 8.1641 3.6211 12.785-1.1719 2.7812-3.3867 4.875-6.2305 5.8906-2.8711 1.0078-5.8984 0.77734-8.5586-0.62891l-29.262-15.566c-5.957-3.168-13.02-3.6562-19.363-1.3398-6.3438 2.3203-11.426 7.2344-13.938 13.5-3.9102 9.7461-0.89062 21.098 7.375 27.598l38.438 30.258c-28.422 11.105-101.73 29.488-174.09-36.262 72.031-53.41 132.05-134.4 135.8-139.53 2.8516-3.8945 2.0117-9.3711-1.8828-12.223-3.9102-2.8594-9.3711-2.0117-12.234 1.8828-0.91016 1.2422-62.965 85.051-134.3 137.49-70.555-74.352-51.305-149.08-39.711-177.8z"/>
  <use x="70" y="691.25" xlink:href="#l"/>
  <use x="102.109375" y="691.25" xlink:href="#d"/>
  <use x="123.683594" y="691.25" xlink:href="#b"/>
  <use x="153.355469" y="691.25" xlink:href="#c"/>
  <use x="182.878906" y="691.25" xlink:href="#i"/>
  <use x="203.792969" y="691.25" xlink:href="#b"/>
  <use x="233.464844" y="691.25" xlink:href="#a"/>
  <use x="280.011719" y="691.25" xlink:href="#h"/>
  <use x="311.328125" y="691.25" xlink:href="#g"/>
  <use x="355.078125" y="691.25" xlink:href="#f"/>
  <use x="388.9375" y="691.25" xlink:href="#e"/>
  <use x="420.085938" y="691.25" xlink:href="#a"/>
  <use x="451.402344" y="691.25" xlink:href="#d"/>
  <use x="472.976562" y="691.25" xlink:href="#b"/>
  <use x="517.882812" y="691.25" xlink:href="#k"/>
  <use x="551.230469" y="691.25" xlink:href="#j"/>
  <use x="582.375" y="691.25" xlink:href="#c"/>
  <use x="611.898437" y="691.25" xlink:href="#e"/>
  <use x="643.042969" y="691.25" xlink:href="#a"/>
 </g>
</svg>
