<?xml version="1.0" encoding="UTF-8"?>
<svg width="700pt" height="700pt" version="1.1" viewBox="0 0 700 700" xmlns="http://www.w3.org/2000/svg" xmlns:xlink="http://www.w3.org/1999/xlink">
 <defs>
  <symbol id="z" overflow="visible">
   <path d="m3.75-0.21875c-0.19922 0.09375-0.40234 0.16797-0.60938 0.21875-0.21094 0.050781-0.42969 0.078125-0.65625 0.078125-0.67969 0-1.2148-0.1875-1.6094-0.5625-0.39844-0.38281-0.59375-0.89844-0.59375-1.5469 0-0.65625 0.19531-1.1719 0.59375-1.5469 0.39453-0.38281 0.92969-0.57812 1.6094-0.57812 0.22656 0 0.44531 0.027344 0.65625 0.078125 0.20703 0.054687 0.41016 0.13281 0.60938 0.23438v0.84375c-0.19922-0.13281-0.39062-0.23438-0.57812-0.29688s-0.38672-0.09375-0.59375-0.09375c-0.375 0-0.67188 0.12109-0.89062 0.35938-0.21875 0.24219-0.32812 0.57422-0.32812 1 0 0.41797 0.10938 0.74609 0.32812 0.98438 0.21875 0.24219 0.51562 0.35938 0.89062 0.35938 0.20703 0 0.40625-0.03125 0.59375-0.09375s0.37891-0.15625 0.57812-0.28125z"/>
  </symbol>
  <symbol id="c" overflow="visible">
   <path d="m2.75-2.2188c-0.09375-0.039062-0.18359-0.070312-0.26562-0.09375-0.085937-0.019531-0.16797-0.03125-0.25-0.03125-0.25 0-0.44531 0.085938-0.57812 0.25-0.13672 0.15625-0.20312 0.38672-0.20312 0.6875v1.4062h-0.98438v-3.0625h0.98438v0.5c0.125-0.19531 0.26562-0.34375 0.42188-0.4375 0.16406-0.09375 0.36328-0.14062 0.59375-0.14062 0.03125 0 0.0625 0.007813 0.09375 0.015625 0.039062 0 0.097656 0.007812 0.17188 0.015625z"/>
  </symbol>
  <symbol id="b" overflow="visible">
   <path d="m3.5156-1.5312v0.26562h-2.2812c0.019531 0.23047 0.10156 0.40234 0.25 0.51562 0.14453 0.11719 0.34375 0.17188 0.59375 0.17188 0.20703 0 0.41406-0.023437 0.625-0.078125 0.21875-0.0625 0.44141-0.15625 0.67188-0.28125v0.75c-0.23047 0.09375-0.46094 0.16406-0.6875 0.20312-0.23047 0.039062-0.46484 0.0625-0.70312 0.0625-0.55469 0-0.98438-0.14062-1.2969-0.42188-0.30469-0.28125-0.45312-0.67578-0.45312-1.1875 0-0.5 0.14844-0.89062 0.45312-1.1719 0.30078-0.28906 0.71875-0.4375 1.25-0.4375 0.47656 0 0.85938 0.14844 1.1406 0.4375 0.28906 0.29297 0.4375 0.68359 0.4375 1.1719zm-1-0.32812c0-0.1875-0.058594-0.33594-0.17188-0.45312-0.10547-0.11328-0.24219-0.17188-0.40625-0.17188-0.19922 0-0.35547 0.058594-0.46875 0.17188-0.11719 0.10547-0.1875 0.25781-0.21875 0.45312z"/>
  </symbol>
  <symbol id="e" overflow="visible">
   <path d="m1.8438-1.375c-0.21094 0-0.36719 0.039062-0.46875 0.10938-0.10547 0.0625-0.15625 0.16406-0.15625 0.29688 0 0.125 0.039062 0.22656 0.125 0.29688 0.082031 0.0625 0.20312 0.09375 0.35938 0.09375 0.17578 0 0.32812-0.0625 0.45312-0.1875 0.125-0.13281 0.1875-0.30078 0.1875-0.5v-0.10938zm1.4844-0.375v1.75h-0.98438v-0.45312c-0.125 0.1875-0.27344 0.32422-0.4375 0.40625-0.16797 0.082031-0.36719 0.125-0.59375 0.125-0.32422 0-0.58594-0.085938-0.78125-0.26562-0.19922-0.1875-0.29688-0.42969-0.29688-0.73438 0-0.35156 0.125-0.61328 0.375-0.78125 0.25-0.16406 0.63281-0.25 1.1562-0.25h0.57812v-0.078125c0-0.15625-0.0625-0.26953-0.1875-0.34375-0.11719-0.070312-0.30469-0.10938-0.5625-0.10938-0.21094 0-0.40625 0.023437-0.59375 0.0625-0.17969 0.042969-0.33984 0.10547-0.48438 0.1875v-0.75c0.20703-0.039063 0.41406-0.078125 0.625-0.10938 0.20703-0.03125 0.41406-0.046875 0.625-0.046875 0.55078 0 0.94531 0.10938 1.1875 0.32812 0.25 0.21875 0.375 0.57422 0.375 1.0625z"/>
  </symbol>
  <symbol id="a" overflow="visible">
   <path d="m1.5312-3.9219v0.85938h1.0156v0.70312h-1.0156v1.2969c0 0.14844 0.023438 0.24609 0.078125 0.29688 0.0625 0.042969 0.17578 0.0625 0.34375 0.0625h0.5v0.70312h-0.82812c-0.38672 0-0.66406-0.078125-0.82812-0.23438-0.15625-0.16406-0.23438-0.44141-0.23438-0.82812v-1.2969h-0.48438v-0.70312h0.48438v-0.85938z"/>
  </symbol>
  <symbol id="l" overflow="visible">
   <path d="m2.5469-2.6094v-1.6406h0.98438v4.25h-0.98438v-0.4375c-0.13672 0.17969-0.28906 0.30859-0.45312 0.39062-0.15625 0.082031-0.33984 0.125-0.54688 0.125-0.375 0-0.6875-0.14453-0.9375-0.4375-0.24219-0.30078-0.35938-0.69141-0.35938-1.1719 0-0.46875 0.11719-0.85156 0.35938-1.1562 0.25-0.30078 0.5625-0.45312 0.9375-0.45312 0.20703 0 0.39062 0.046875 0.54688 0.14062 0.16406 0.085938 0.31641 0.21484 0.45312 0.39062zm-0.64062 1.9844c0.20703 0 0.36328-0.078125 0.46875-0.23438 0.11328-0.15625 0.17188-0.37891 0.17188-0.67188 0-0.28906-0.058594-0.50781-0.17188-0.65625-0.10547-0.15625-0.26172-0.23438-0.46875-0.23438-0.21094 0-0.37109 0.078125-0.48438 0.23438-0.10547 0.14844-0.15625 0.36719-0.15625 0.65625 0 0.29297 0.050781 0.51562 0.15625 0.67188 0.11328 0.15625 0.27344 0.23438 0.48438 0.23438z"/>
  </symbol>
  <symbol id="k" overflow="visible">
   <path d="m2.0938-0.625c0.20703 0 0.36719-0.078125 0.48438-0.23438 0.11328-0.15625 0.17188-0.37891 0.17188-0.67188 0-0.28906-0.058594-0.50781-0.17188-0.65625-0.11719-0.15625-0.27734-0.23438-0.48438-0.23438-0.21094 0-0.37109 0.078125-0.48438 0.23438-0.10547 0.14844-0.15625 0.36719-0.15625 0.65625 0 0.29297 0.050781 0.51562 0.15625 0.67188 0.11328 0.15625 0.27344 0.23438 0.48438 0.23438zm-0.64062-1.9844c0.13281-0.17578 0.28125-0.30469 0.4375-0.39062 0.16406-0.09375 0.35156-0.14062 0.5625-0.14062 0.38281 0 0.69531 0.15234 0.9375 0.45312 0.23828 0.30469 0.35938 0.6875 0.35938 1.1562 0 0.48047-0.12109 0.87109-0.35938 1.1719-0.24219 0.29297-0.55469 0.4375-0.9375 0.4375-0.21094 0-0.39844-0.042969-0.5625-0.125-0.15625-0.082031-0.30469-0.21094-0.4375-0.39062v0.4375h-0.98438v-4.25h0.98438z"/>
  </symbol>
  <symbol id="j" overflow="visible">
   <path d="m0.0625-3.0625h0.98438l0.82812 2.0781 0.6875-2.0781h0.98438l-1.2812 3.3594c-0.13672 0.33203-0.29297 0.56641-0.46875 0.70312-0.16797 0.13281-0.39062 0.20312-0.67188 0.20312h-0.5625v-0.64062h0.29688c0.16406 0 0.28516-0.027344 0.35938-0.078125 0.082031-0.054687 0.14453-0.14844 0.1875-0.28125l0.03125-0.078125z"/>
  </symbol>
  <symbol id="i" overflow="visible">
   <path d="m0.51562-4.0781h1.3438l0.92188 2.1875 0.9375-2.1875h1.3281v4.0781h-0.98438v-2.9844l-0.95312 2.2031h-0.65625l-0.9375-2.2031v2.9844h-1z"/>
  </symbol>
  <symbol id="y" overflow="visible">
   <path d="m0.46875-3.0625h0.98438v3.0625h-0.98438zm0-1.1875h0.98438v0.79688h-0.98438z"/>
  </symbol>
  <symbol id="h" overflow="visible">
   <path d="m3.5469-1.8594v1.8594h-0.98438v-1.4219c0-0.26953-0.007812-0.45312-0.015625-0.54688-0.011719-0.10156-0.03125-0.17578-0.0625-0.21875-0.042969-0.0625-0.09375-0.10938-0.15625-0.14062-0.0625-0.039063-0.13672-0.0625-0.21875-0.0625-0.21094 0-0.37109 0.078125-0.48438 0.23438-0.11719 0.15625-0.17188 0.375-0.17188 0.65625v1.5h-0.98438v-3.0625h0.98438v0.45312c0.14453-0.17578 0.30078-0.30469 0.46875-0.39062 0.16406-0.09375 0.34766-0.14062 0.54688-0.14062 0.35156 0 0.61719 0.10938 0.79688 0.32812 0.1875 0.21875 0.28125 0.53906 0.28125 0.95312z"/>
  </symbol>
  <symbol id="x" overflow="visible">
   <path d="m0.51562-4.0781h1.0469v3.2812h1.8438v0.79688h-2.8906z"/>
  </symbol>
  <symbol id="g" overflow="visible">
   <path d="m0.51562-4.0781h2.8281v0.79688h-1.7812v0.75h1.6875v0.79688h-1.6875v0.9375h1.8438v0.79688h-2.8906z"/>
  </symbol>
  <symbol id="w" overflow="visible">
   <path d="m2.1406-2.5c0.16406 0 0.28906-0.035156 0.375-0.10938 0.09375-0.070313 0.14062-0.17969 0.14062-0.32812 0-0.13281-0.046875-0.23828-0.14062-0.3125-0.085937-0.070312-0.21094-0.10938-0.375-0.10938h-0.57812v0.85938zm0.046875 1.7812c0.20703 0 0.36328-0.039062 0.46875-0.125 0.10156-0.09375 0.15625-0.22656 0.15625-0.40625 0-0.17578-0.054688-0.30469-0.15625-0.39062-0.10547-0.09375-0.26172-0.14062-0.46875-0.14062h-0.625v1.0625zm0.96875-1.4688c0.22656 0.074219 0.40625 0.19922 0.53125 0.375 0.125 0.17969 0.1875 0.39062 0.1875 0.64062 0 0.39844-0.13672 0.69531-0.40625 0.89062-0.26172 0.1875-0.66406 0.28125-1.2031 0.28125h-1.75v-4.0781h1.5781c0.5625 0 0.96875 0.089844 1.2188 0.26562 0.25781 0.16797 0.39062 0.4375 0.39062 0.8125 0 0.19922-0.046875 0.37109-0.14062 0.51562-0.09375 0.13672-0.23047 0.23438-0.40625 0.29688z"/>
  </symbol>
  <symbol id="v" overflow="visible">
   <path d="m2-2.2656c0.22656 0 0.39062-0.039063 0.48438-0.125 0.09375-0.082031 0.14062-0.21875 0.14062-0.40625s-0.046875-0.31641-0.14062-0.39062c-0.09375-0.082031-0.25781-0.125-0.48438-0.125h-0.4375v1.0469zm-0.4375 0.71875v1.5469h-1.0469v-4.0781h1.6094c0.53125 0 0.92188 0.09375 1.1719 0.28125 0.25 0.17969 0.375 0.46094 0.375 0.84375 0 0.27344-0.070313 0.49609-0.20312 0.67188-0.125 0.16797-0.32031 0.29297-0.57812 0.375 0.14453 0.03125 0.27344 0.10547 0.39062 0.21875 0.11328 0.11719 0.22656 0.29297 0.34375 0.53125l0.57812 1.1562h-1.125l-0.5-1.0156c-0.10547-0.19531-0.21094-0.33203-0.3125-0.40625-0.09375-0.082031-0.23047-0.125-0.40625-0.125z"/>
  </symbol>
  <symbol id="u" overflow="visible">
   <path d="m0.03125-4.0781h3.75v0.79688h-1.3438v3.2812h-1.0625v-3.2812h-1.3438z"/>
  </symbol>
  <symbol id="t" overflow="visible">
   <path d="m2.375-3.3906c-0.32422 0-0.57422 0.12109-0.75 0.35938-0.17969 0.24219-0.26562 0.57422-0.26562 1 0 0.42969 0.085937 0.76172 0.26562 1 0.17578 0.23047 0.42578 0.34375 0.75 0.34375 0.32031 0 0.57031-0.11328 0.75-0.34375 0.17578-0.23828 0.26562-0.57031 0.26562-1 0-0.42578-0.089844-0.75781-0.26562-1-0.17969-0.23828-0.42969-0.35938-0.75-0.35938zm0-0.76562c0.65625 0 1.1641 0.1875 1.5312 0.5625 0.375 0.375 0.5625 0.89844 0.5625 1.5625 0 0.65625-0.1875 1.1719-0.5625 1.5469-0.36719 0.375-0.875 0.5625-1.5312 0.5625s-1.1719-0.1875-1.5469-0.5625c-0.36719-0.375-0.54688-0.89062-0.54688-1.5469 0-0.66406 0.17969-1.1875 0.54688-1.5625 0.375-0.375 0.89062-0.5625 1.5469-0.5625z"/>
  </symbol>
  <symbol id="f" overflow="visible">
   <path d="m0.51562-4.0781h1.1719l1.4844 2.7969v-2.7969h1v4.0781h-1.1719l-1.4844-2.7969v2.7969h-1z"/>
  </symbol>
  <symbol id="s" overflow="visible">
   <path d="m2.4844-4.25v0.64062h-0.54688c-0.13672 0-0.23047 0.027344-0.28125 0.078125-0.054688 0.054688-0.078125 0.14062-0.078125 0.26562v0.20312h0.82812v0.70312h-0.82812v2.3594h-0.98438v-2.3594h-0.48438v-0.70312h0.48438v-0.20312c0-0.33203 0.09375-0.57812 0.28125-0.73438 0.1875-0.16406 0.47266-0.25 0.85938-0.25z"/>
  </symbol>
  <symbol id="d" overflow="visible">
   <path d="m1.9219-2.4375c-0.21875 0-0.38672 0.078125-0.5 0.23438-0.10547 0.15625-0.15625 0.38281-0.15625 0.67188 0 0.29297 0.050781 0.51562 0.15625 0.67188 0.11328 0.15625 0.28125 0.23438 0.5 0.23438s0.37891-0.078125 0.48438-0.23438c0.11328-0.15625 0.17188-0.37891 0.17188-0.67188 0-0.28906-0.058594-0.51562-0.17188-0.67188-0.10547-0.15625-0.26562-0.23438-0.48438-0.23438zm0-0.70312c0.53125 0 0.94141 0.14844 1.2344 0.4375 0.30078 0.28125 0.45312 0.67188 0.45312 1.1719 0 0.51172-0.15234 0.90625-0.45312 1.1875-0.29297 0.28125-0.70312 0.42188-1.2344 0.42188-0.52344 0-0.93359-0.14062-1.2344-0.42188-0.30469-0.28125-0.45312-0.67578-0.45312-1.1875 0-0.5 0.14844-0.89062 0.45312-1.1719 0.30078-0.28906 0.71094-0.4375 1.2344-0.4375z"/>
  </symbol>
  <symbol id="r" overflow="visible">
   <path d="m3.3125-2.5469c0.11328-0.1875 0.25391-0.33203 0.42188-0.4375 0.17578-0.10156 0.36719-0.15625 0.57812-0.15625 0.34375 0 0.60938 0.10938 0.79688 0.32812s0.28125 0.53906 0.28125 0.95312v1.8594h-0.98438v-1.5938-0.0625-0.125c0-0.21875-0.03125-0.375-0.09375-0.46875s-0.16797-0.14062-0.3125-0.14062c-0.1875 0-0.33594 0.078125-0.4375 0.23438-0.09375 0.14844-0.14062 0.36719-0.14062 0.65625v1.5h-0.98438v-1.5938c0-0.34375-0.03125-0.5625-0.09375-0.65625-0.054688-0.09375-0.15625-0.14062-0.3125-0.14062-0.1875 0-0.33594 0.078125-0.4375 0.23438-0.09375 0.14844-0.14062 0.36719-0.14062 0.65625v1.5h-0.98438v-3.0625h0.98438v0.45312c0.11328-0.17578 0.25-0.30469 0.40625-0.39062 0.15625-0.09375 0.32812-0.14062 0.51562-0.14062 0.20703 0 0.39062 0.054687 0.54688 0.15625 0.16406 0.10547 0.29688 0.25 0.39062 0.4375z"/>
  </symbol>
  <symbol id="q" overflow="visible">
   <path d="m3.5469-1.8594v1.8594h-0.98438v-1.4219c0-0.26953-0.007812-0.45312-0.015625-0.54688-0.011719-0.10156-0.03125-0.17578-0.0625-0.21875-0.042969-0.0625-0.09375-0.10938-0.15625-0.14062-0.0625-0.039063-0.13672-0.0625-0.21875-0.0625-0.21094 0-0.37109 0.078125-0.48438 0.23438-0.11719 0.15625-0.17188 0.375-0.17188 0.65625v1.5h-0.98438v-4.25h0.98438v1.6406c0.14453-0.17578 0.30078-0.30469 0.46875-0.39062 0.16406-0.09375 0.34766-0.14062 0.54688-0.14062 0.35156 0 0.61719 0.10938 0.79688 0.32812 0.1875 0.21875 0.28125 0.53906 0.28125 0.95312z"/>
  </symbol>
  <symbol id="p" overflow="visible">
   <path d="m0.4375-1.1875v-1.875h0.98438v0.3125 0.625 0.5c0 0.24219 0.003906 0.41797 0.015625 0.53125 0.007812 0.10547 0.03125 0.18359 0.0625 0.23438 0.039062 0.0625 0.09375 0.11719 0.15625 0.15625 0.0625 0.03125 0.13281 0.046875 0.21875 0.046875 0.20703 0 0.36719-0.078125 0.48438-0.23438 0.11328-0.15625 0.17188-0.375 0.17188-0.65625v-1.5156h0.98438v3.0625h-0.98438v-0.4375c-0.14844 0.17969-0.30469 0.30859-0.46875 0.39062-0.16797 0.082031-0.35156 0.125-0.54688 0.125-0.35547 0-0.625-0.10938-0.8125-0.32812-0.17969-0.21875-0.26562-0.53125-0.26562-0.9375z"/>
  </symbol>
  <symbol id="o" overflow="visible">
   <path d="m0.51562-4.0781h1.75c0.50781 0 0.90625 0.11719 1.1875 0.34375 0.28125 0.23047 0.42188 0.55859 0.42188 0.98438 0 0.42969-0.14062 0.75781-0.42188 0.98438-0.28125 0.23047-0.67969 0.34375-1.1875 0.34375h-0.70312v1.4219h-1.0469zm1.0469 0.76562v1.1406h0.57812c0.20703 0 0.36328-0.046875 0.46875-0.14062 0.11328-0.10156 0.17188-0.25 0.17188-0.4375 0-0.17578-0.058594-0.3125-0.17188-0.40625-0.10547-0.10156-0.26172-0.15625-0.46875-0.15625z"/>
  </symbol>
  <symbol id="n" overflow="visible">
   <path d="m0.46875-3.0625h0.98438v3.0156c0 0.40625-0.10156 0.71094-0.29688 0.92188-0.19922 0.21875-0.48438 0.32812-0.85938 0.32812h-0.48438v-0.64062h0.17188c0.1875 0 0.3125-0.042969 0.375-0.125 0.070313-0.085938 0.10938-0.24609 0.10938-0.48438zm0-1.1875h0.98438v0.79688h-0.98438z"/>
  </symbol>
  <symbol id="m" overflow="visible">
   <path d="m2.9375-2.9688v0.79688c-0.125-0.082031-0.25781-0.14453-0.39062-0.1875-0.13672-0.050781-0.27734-0.078125-0.42188-0.078125-0.27344 0-0.48438 0.085938-0.64062 0.25-0.14844 0.15625-0.21875 0.375-0.21875 0.65625 0 0.29297 0.070313 0.51562 0.21875 0.67188 0.15625 0.15625 0.36719 0.23438 0.64062 0.23438 0.15625 0 0.30078-0.019531 0.4375-0.0625 0.13281-0.039062 0.25781-0.10938 0.375-0.20312v0.79688c-0.14844 0.0625-0.30469 0.10156-0.46875 0.125-0.15625 0.03125-0.3125 0.046875-0.46875 0.046875-0.55469 0-0.98438-0.14062-1.2969-0.42188s-0.46875-0.67578-0.46875-1.1875c0-0.5 0.15625-0.89062 0.46875-1.1719 0.3125-0.28906 0.74219-0.4375 1.2969-0.4375 0.16406 0 0.32031 0.015625 0.46875 0.046875 0.15625 0.03125 0.3125 0.074219 0.46875 0.125z"/>
  </symbol>
 </defs>
 <g>
  <path d="m581.91 304.19-0.98438-5.3281-5.3594 0.80859c-4.5391 0.68359-9.8789 1.4375-15.098 1.8555l-0.49219 0.0625c-4.9141 0.83594-8.8789 1.2227-12.48 1.2227-6.0781 0-11.102-1.1719-15.387-3.6289 10.219-1.5586 20.645-2.9727 30.648-2.9727 3.4805 0 6.6914 0.16406 9.8164 0.5l8.1992 0.88672-2.2031-7.9492c-4.9688-17.945-13.512-34.863-42.121-37.164-1.9609-0.15625-3.9141-0.23828-5.8086-0.23828-13.086 0-23.102 3.7852-33.711 7.7891-0.32422 0.12109-0.66016 0.24609-0.98438 0.37109-0.83984-1.3477-1.8867-2.5469-2.832-3.6289-0.69141-0.79297-1.4102-1.6094-2.0117-2.4219-4.7852-6.4609-10.461-8.9375-15.945-11.328-1-0.4375-2.0273-0.88281-3.0859-1.3711-1.2539-0.57812-2.4648-1.1641-3.6602-1.7383-5.2344-2.5273-10.641-5.1445-17.648-6.0703-14.332-1.9023-30.793 0.46094-48.91 7.0195-9.8516 3.5664-20.172 9.6328-29.738 17.238-0.47656-6.6133-2.6641-13.051-6.875-17.133-10.031-9.7344-20.977-10.246-33.215-10.246h-1.3945c-4.4297-0.84766-8.9766-0.49219-13.5-0.15234-0.69922-3.0703-1.4414-6.1328-2.2266-9.1914-0.84766-3.2656 0.29688-10.273 1.2148-15.91 0.69922-4.3125 1.3672-8.3828 1.3906-11.652 0.050782-6.707 0.85547-13.332 1.7109-20.348 0.16406-1.3633 0.33203-2.7266 0.49219-4.0938 0.17969-1.5273 0.63672-3.5273 1.125-5.6484 0.96484-4.207 2.0156-8.8203 1.75-13.109 3.4688-10.84 11.188-27.875 26.059-31.285-0.09375 1.3828-0.4375 2.9727-0.88281 3.707-11.082 9.3281-19.676 21.75-25.547 36.938l-1.2539 3.25 2.3594 2.5625c4.8828 5.3008 9.7812 10.129 14.566 14.355l7.4961 6.6211 1.7266-9.8477c1.9023-10.859 6.7227-24.207 18.812-27.938 0.34375 0.50781 0.66797 1.1133 0.83594 1.5781-2.0547 4.9609-5.2227 9.5977-8.5664 14.5-3.8867 5.6914-7.9023 11.578-10.238 18.258l-1.4023 4.0117 3.4844 2.4297c12.578 8.7734 24.5 13.219 35.438 13.219 4.1758 0 8.2539-0.65234 12.125-1.9336 11.512-3.8164 20.082-16.691 24.785-37.238l0.83203-3.6406-3.0391-2.168c-5.4883-3.918-11.98-8.1055-20.105-8.8164-0.38672-0.40234-0.88281-0.99219-1.2227-1.3945-0.38281-0.45312-0.77344-0.92188-1.1797-1.3555-0.18359-0.26172-0.28516-0.45703-0.34766-0.58984 0.97656-1.1836 5.2344-2.9336 8.9844-2.9336 0.15625 0 0.30078 0.003906 0.44531 0.011719 2.0742 0.30078 4.1836 0.42188 6.2305 0.53516 2.1172 0.12109 4.3086 0.24609 6.3477 0.57031l6.1094 0.97266 0.35547-6.1758c0.37109-6.4258 0.39844-12.879 0.085937-19.215l0.42969 0.25-1.3438-11.172c-1.4922-12.395-3.9883-33.145-21.734-38.633-5.7227-1.7695-11.609-2.668-17.5-2.668-11.441 0-22.367 3.3789-31.594 9.7734-0.83984 0.58203-1.668 1.1641-2.4961 1.7422-7.2188 5.0664-13.453 9.4414-21.715 10.156l-1.1836 0.097656c-4.3125 0.35156-9.6758 0.78906-14.207 3.457-7.0234 4.1328-12 11.973-14.008 22.07-0.69141 3.4883-0.98047 6.9961-0.88281 10.391l-0.16406 0.73047c-1.8125 8.0391-4.1016 18.188-5.8984 28.41-4.6875-16.969-11.312-35.727-27.977-41.969-8.543-3.1992-22.84-8.5586-33.434-3.457-1.1641 0.5625-2.1328 1.1953-2.9414 1.8867-0.53516-0.58984-1.0781-1.1992-1.6445-1.8438-0.96484-1.1016-1.9648-2.2383-3.1211-3.4531-5.3906-5.6562-12.422-8.5273-20.902-8.5273-3.1562 0-6.4844 0.38281-10.172 1.1719-1.3906 0.29688-2.8711 0.53906-4.4375 0.80078-2.6992 0.44531-5.4922 0.90625-8.2383 1.7109-0.27734 0.082031-0.65234 0.18359-1.1016 0.30859-8.1406 2.2617-12.672 3.9219-14.836 6.7344-2.1992 2.8594-2.9023 6.1758-1.9766 9.3438 1.7266 5.9062 8.0938 8.6055 10.008 9.293 3.5391 1.2734 7.125 1.5 10.289 1.7031 2.7695 0.17578 5.3906 0.34375 7.4648 1.1719 3.9844 1.5859 8.8789 6.0742 9.0664 7.7148-0.14062 1.5352-3.9062 2.0938-6.4023 2.0938-2.6289 0-4.9375-0.46094-6.1172-0.85156l-0.1875-0.058594c-3.8945-1.1445-7.7695-2.5781-11.875-4.0938-6.1875-2.2852-12.582-4.6523-19.098-5.9648l-3.8047-0.76562-2.0547 3.2891c-6.6328 10.672-12.367 23.777-15.699 35.969l-1.5664 5.7305 5.8125 1.2305c10.125 2.1406 17.203 5.8242 21.152 10.992-3.5078-0.65234-7.0742-1.7734-10.773-2.9336-3.7422-1.1758-7.6133-2.3906-11.715-3.2188l-5.5859-1.1289-1.0312 5.6055c-5.0938 27.688-1.457 45.055 10.805 51.617 3.7773 2.0234 9.6055 2.9648 18.34 2.9648 8.6133 0 18.062-0.91797 24.961-1.5859 1.7266-0.16797 3.2578-0.31641 4.5195-0.42188 6.2188-0.53125 13.059-1.9141 20.324-4.1055l5.3516-1.6133-1.6055-5.3555c-1.3398-4.4648-3.3945-8.6133-5.3789-12.625-4.0391-8.1562-6.5391-13.707-4.7891-19.32 0.75 0.28125 1.625 0.71875 2.0469 0.92969l0.12109 0.058593c9.957 4.6836 16.883 14.082 18.527 25.137l1.0977 7.375 6.7773-3.1094c0.98438-0.45312 1.9609-0.90625 2.9141-1.3594 11.742-5.5898 22.281-14.277 29.672-24.457l2.582-3.5547-4.0977-4.8438c-7.3828-8.7578-15.02-17.816-28.676-22.367l-0.76562-0.25391c-0.41797-0.26563-0.95312-0.69531-1.3008-1.0547-0.64844-4.1055-0.11328-7.2188 0.46094-8.0859l0.21094-0.058593c5.2031-1.4453 10.719-0.64062 16.457 2.3672 0.83594 0.44141 3.3125 2.6055 4.9531 4.0391 5.957 5.2109 9.8672 8.3789 13.918 8.3789l0.34766-0.007813c0.32812-0.015624 0.64453-0.058593 0.96484-0.10547 1.4492 4.457 3.5234 8.7109 5.5664 12.859 1.8945 3.8477 3.6836 7.4844 4.8594 11.059 3.957 12.031 7.4062 24.863 10.309 38.25-4.2969 1.0508-8.3398 2.3594-12.25 4.0078-5.8516 2.4609-11.23 5.8086-16.43 9.0469-4.6992 2.9258-9.1758 5.7109-13.832 7.7891-11.031-7.1211-24.062-12.047-38.883-13.559-0.26562-0.027344-6.582-0.66797-15.785-0.66797-45.379 0-71.809 14.207-74.418 40.008-0.48047 4.7617-0.875 9.5664-1.1641 14.273l-0.58594 9.5352 8.6055-4.1445c12.969-6.2461 25.641-9.5469 36.645-9.5469 9.5117 0 17.863 2.4297 24.852 7.2266-1.6328 1.8047-5.082 3.9648-6.7969 4.0469-19.707-2.1406-39.906 0.80859-59.816 8.7266l-3.5469 1.4102 0.015625 3.8164c0.042969 9.2812 0.53906 18.16 1.4844 26.387l1.0312 9.0156 7.5938-4.9648c10.996-7.1875 21.965-10.988 31.711-10.988 6.2461 0 12.129 1.5508 17.508 4.6094-0.003906 1.25-0.46484 3.1797-1.0039 4.0742l-0.011719 0.003906c-7.0547 2.6953-15.266 3.9492-23.207 5.1641-9.1484 1.3984-18.605 2.8438-26.996 6.5039l-4.293 1.8711 1.082 4.5547c6.3164 26.617 18.656 44.543 36.68 53.289 4.8516 2.3555 10.383 3.5469 16.449 3.5469 11.988 0 25.891-4.5352 41.316-13.473l3.5586-2.0625-0.90625-4.0156c-1.9414-8.6133-4.6562-18.422-12.312-26.402-0.09375-0.80078-0.027344-2.2812 0.011719-3.1406 0.035156-0.81641 0.070312-1.5977 0.058593-2.3555 0.22656-1.8828 0.66406-1.8828 1.8398-1.8828 4.168 0 11.387 3.9453 14.492 7.2266 1.7891 2.1641 3.8203 4.25 5.7891 6.2656 2.0938 2.1484 4.2578 4.3672 6.1172 6.668l3.5938 4.457 4.375-3.6914c6.5547-5.5312 12.754-11.449 18.477-17.594h4.9414l15.516 125.44h116.96l15.516-125.44h16.504v-30.793c3.7812 5.3711 7.2812 10.816 10.664 16.09l2.9453 4.5859-0.039062 0.015625 3.6992 5.5508c4.1914 6.2969 7.8438 11.332 11.48 15.84 1.9297 2.3945 3.5312 4.3281 5.0391 6.0898l3.8789 4.5391 4.2812-4.1641c0.57422-0.55859 1.1445-1.1211 1.707-1.6836 5.3242-5.2734 8.7305-8.4102 14.18-8.0352 0.003907 0.082031 0 0.16016-0.007812 0.22656l-0.1875 0.34375c-2.4258 4.7266-7.0117 7.5781-12.309 10.555l-7 3.9336 6.1094 5.207c8.4805 7.2305 17.016 10.598 26.855 10.598 5.793 0 11.906-1.1836 18.68-3.6172 8.5-3.0547 17.297-8.7969 26.898-17.566l3.6016-3.2891-2.7617-4.0195c-5.0781-7.3867-13.352-12.406-23.363-14.188-0.20703-0.11328-0.41797-0.24219-0.62109-0.37891 2.0938-1.2734 4.4531-1.918 7.0508-1.918 6.8359 0 14.531 4.4141 19.602 11.25l3.9844 5.3711 4.5859-4.8672c1.6836-1.7891 3.3164-3.5508 4.8828-5.2539 5.1523-5.5859 9.3086-11.602 12.348-17.879l1.5625-3.2266-2.2734-2.7695c-6.8164-8.3047-17.305-10.008-27.445-11.656-4.4961-0.73047-8.8164-1.4336-12.664-2.6562 6.6836-2.9297 14.117-4.4102 22.18-4.4102 5.793 0 11.992 0.76562 18.418 2.2695l6.6758 1.5625 0.20312-6.8516c0.1875-6.0234-0.34375-12.453-1.5703-19.098zm-176.23-52.793c16.41-5.9375 31.086-8.1094 43.629-6.4492 5.2188 0.69141 9.4023 2.7109 14.246 5.0508 1.2539 0.60547 2.5312 1.2227 3.8516 1.832 1.1289 0.51953 2.2227 0.99609 3.2891 1.4609 5.0703 2.2109 8.4219 3.6719 11.422 7.7266 0.82422 1.1133 1.6719 2.0898 2.4375 2.9648-1.625 0.27734-3.3516 0.46484-5.1836 0.56641-0.18359-0.050781-0.35156-0.10547-0.49219-0.16797-1.5898-0.71484-3.3125-2.4102-5.1328-4.2031-1.8867-1.8555-3.832-3.7734-6.2461-5.2891-4.5781-2.875-9.6719-5.6836-17.172-5.6836-16.332 0-56.617 2.8711-77.898 29.445-8.9336 11.152-12.461 24.633-15.871 37.672-0.61328 2.3438-1.2266 4.6797-1.8633 6.9844l1.3672 0.37891h-6.3203c1.4766-4.793 2.1133-9.8398 2.7305-14.789 1.0273-8.1914 1.9922-15.93 6.5547-21.82 12.262-15.859 30.578-29.863 46.652-35.68zm9.1953 64.84 2.6484 3.9609 4.3359-1.9805c19.074-8.707 40.723-11.785 59.598-13.957 0.32422 0.22656 0.70312 0.60547 1 0.98047-7.0703 7.8945-17.996 9.3945-29.535 10.977-8.6562 1.1875-17.605 2.418-25.344 6.4922l-1.8359 0.96484h-59.559c0.40234-1.5078 0.8125-3.0078 1.207-4.5273 3.1172-11.902 6.3398-24.211 13.781-33.508 18.242-22.785 54.438-25.246 69.152-25.246 3.6523 0 6.3281 1.0391 9.7773 3.0859-5.375-0.57422-10.93-1.1602-16.293-1.1602l-0.76953 0.003906c-7.2773 0.078126-16.609 0.57031-24.199 3.707-9.7852 4.043-14.961 11.695-14.965 22.125-0.007813 7.9219 3.4883 16.84 11 28.082zm-85.621 7.4453c-0.3125-19.066-3.207-38.312-6.0195-56.809-0.625-4.1133-1.2617-8.4727-1.8711-12.715 13.398-0.4375 19.523 0.3125 21.559 8.6133 2.1016 8.582 3.1055 23.648 1.1953 29.492l0.035157 0.011719c-1.5312 5.1094-2.1953 10.344-2.8047 15.227-0.74609 5.9648-1.4766 11.637-3.6016 16.18zm1.3867-81.758h1.3984c10.441 0 18.371 0.25 25.418 7.082 3.7383 3.6289 4.7188 14.117 2.0469 20.512-1.2383 1.2695-2.4531 2.5586-3.6328 3.8711-0.49219-5.3125-1.3047-10.172-2.0703-13.281-4.4414-18.109-21.094-17.543-33.254-17.129l-0.83594 0.027344c-0.011719 0-0.027343 0-0.039062 0.003906-0.085938-0.49609-0.17969-0.99219-0.27344-1.4883 3.6719-0.23047 7.3867-0.32031 11.242 0.40234zm-19.184-89.992c0 2.6328-0.85547 6.375-1.5273 9.3008-0.55469 2.4258-1.0781 4.7148-1.332 6.8438-0.16016 1.3477-0.32422 2.6953-0.48438 4.043-0.78516 6.4375-1.582 13.074-1.7539 19.801-1.1484-3.2578-2.4648-6.4023-3.7539-9.4688-0.25781-0.60938-0.49219-1.1914-0.74219-1.7891 0.14453-10.039 2.3242-22.988 4.7617-34.91 1.5938 2.0898 3.207 4.1523 4.832 6.1797zm0.082031-35.062c1.3555-6.8203 4.5273-12.145 8.7031-14.602 2.3203-1.3672 6.1016-1.6758 9.4375-1.9453l1.2344-0.10156c11.266-0.97266 19.359-6.6523 27.188-12.148 0.80469-0.56641 1.6172-1.1367 2.4414-1.707 7.3438-5.0898 16.062-7.7812 25.211-7.7812 4.7695 0 9.543 0.73047 14.191 2.168 7.2031 2.2266 10.402 9.3711 12.246 18.312-2.4297-1.1992-5.0312-2.3828-7.7578-3.4688l-0.53125-0.17969c-3.2852-0.94141-7.3438-1.5547-10.438-1.5703-0.23828-0.007812-0.47656-0.011719-0.72266-0.011719-6.5352 0-14.438 2.6328-17.359 8.5156-1.1719 2.3555-2.4609 7.1953 2.0547 13.152l0.48438 0.55859c2.2188 2.2422 6.4648 4.4297 9.4648 4.8828l0.42969 0.046875c2.5547 0.18359 5.1055 0.34375 7.6406 0.5 6.6875 0.41797 13.074 0.81641 19.383 1.6211 0.097656 3.0586 0.10937 6.1445 0.035156 9.2344-0.41406-0.023438-0.82031-0.046875-1.2305-0.070312-1.9492-0.11328-3.793-0.21875-5.4219-0.46094l-0.34766-0.042969c-0.48438-0.042969-1-0.0625-1.5469-0.0625-5.6094 0-15.762 2.5352-19.145 9.3359-1.1289 2.2734-2.4062 6.8984 1.7344 12.367l0.48438 0.55859c0.26953 0.27344 0.56641 0.63672 0.88672 1.0195 1.6758 1.9922 3.9688 4.7227 7.3867 5.2383l0.62109 0.058594c4.1562 0.15625 7.9414 1.8711 12.273 4.6914-3.7852 14.172-9.5742 23.148-16.484 25.438-9.6875 3.2109-21.055 0.70703-33.875-7.3477 1.9141-3.8867 4.5234-7.707 7.2461-11.695 3.5391-5.1875 7.1992-10.551 9.7031-16.629 1.4961-2.8125 1.1797-6.4531-0.91797-10.348-0.89062-1.6523-4.1914-7.0469-9.2969-7.0469h-0.55078l-0.53906 0.10938c-12.977 2.6094-22.496 12.375-27.422 27.855-1.4766-1.457-2.9609-2.9688-4.4453-4.5273 5.1641-12.074 12.324-21.969 21.309-29.438l0.31641-0.28516c4.207-4.0742 5.2266-13.195 3.2695-18.023-1.3672-3.3711-4.1758-5.3828-7.5234-5.3828-0.40234 0-0.8125 0.03125-1.2188 0.089844-14.914 1.6406-27.098 12.445-34.973 30.754-0.16016-0.21094-0.32422-0.42578-0.48437-0.63672-3.4609-4.5938-4.7266-13.031-3.1445-20.996zm100.31-5.3633c-5.2734-0.53906-10.539-0.86719-15.699-1.1875-2.3906-0.14844-4.7852-0.30078-7.1953-0.46875-0.73438-0.19922-2.1914-0.95703-2.8711-1.4805-0.37109-0.54688-0.53516-0.93359-0.59766-1.1406 0.68359-0.81641 3.7617-2.1875 7.25-2.1875 0.13672 0 0.27344 0.003907 0.40625 0.007813l0.25391 0.003906c1.957 0 4.8594 0.43359 7.1562 1.0625 4.1328 1.6602 7.9102 3.543 11.297 5.3906zm-150.28 43.07c-2.7422-2.3984-5.1133-4.4727-7.125-5.5312-8.2148-4.3086-16.598-5.4297-24.492-3.2891-2.3789 0.53906-7.4844 2.6172-8.9375 10.602-0.87109 4.7891-0.082031 9.7227 0.30078 11.621l0.14844 0.73438 0.33594 0.67187c1.543 3.0898 5.625 6.6211 9.207 7.4141 9.5898 3.3047 15.398 9.5391 21.621 16.863-5.2734 6.2656-11.957 11.711-19.348 15.762-3.7383-11.527-12-21.07-23.062-26.297-1.7773-0.88672-4.7109-2.3359-8.0078-2.3359-3.3633 0-6.2266 1.5156-8.0586 4.2695l-0.23438 0.35156-0.17969 0.38672c-5.332 11.426-0.25 21.688 4.2344 30.742 0.92578 1.8711 1.8281 3.6914 2.6328 5.4883-4.3438 1.0586-8.4453 1.7578-12.242 2.082-1.2969 0.10938-2.8711 0.26172-4.6484 0.4375-6.6719 0.64844-15.805 1.5352-23.879 1.5352-9.0195 0-12.133-1.1445-13.055-1.6367-6.5859-3.5273-8.6836-15.445-6.043-33.824 1.6211 0.46875 3.2539 0.98047 4.9297 1.5078 6.3047 1.9805 12.824 4.0273 19.926 4.0273 1.1875 0 2.3789-0.058594 3.5352-0.17578l6.207-0.62109-1.2852-6.1055c-1.8203-8.6367-8.0977-19.664-27.199-25.344 2.707-8.2422 6.4531-16.664 10.723-24.094 4.4258 1.1914 8.9219 2.8516 13.621 4.5898 4.0703 1.5039 8.2773 3.0586 12.508 4.3086 2.707 0.88672 6.1797 1.3906 9.5586 1.3906 10.137 0 16.867-4.7031 17.555-12.277 0.83984-9.1953-10.691-16.992-16.078-19.137-3.7305-1.4844-7.5352-1.7266-10.895-1.9414-2.6562-0.16797-5.168-0.33203-7.2148-1.0664-1-0.35938-1.8398-0.875-2.3984-1.3125 1.2734-0.56641 3.7305-1.4297 8.4062-2.7266 0.50781-0.14062 0.93359-0.26172 1.2461-0.35156 2.0977-0.61328 4.4375-1 6.918-1.4062 1.625-0.26953 3.3047-0.54297 4.9531-0.89844 9.6211-2.0586 15.918-0.8125 20.629 4.1289 1.0039 1.0508 1.9219 2.1016 2.8164 3.1172 1.8008 2.0508 3.6641 4.1719 6.082 6.1758 1.1445 0.94922 2.3203 1.7969 3.5977 2.5977 5.1797 3.2383 10.266 5.1953 15.18 7.0859 8.4062 3.2344 15.043 5.793 19.84 13.75 1.4766 2.4492 3.3828 9.7344 3.2812 13.398-1.7539-1.293-4.1328-3.375-5.6094-4.668zm17.406 8.8359c-0.40625-2.5625-0.34375-5.168-0.27734-7.9297 0.15625-6.5664 0.35156-14.742-7.1758-21.824-5.168-4.8672-11.301-7.7383-17.23-10.52-3.5703-1.6758-6.9609-3.2617-10.004-5.2109 5.875 0.48828 12.723 3.0547 17.414 4.8086 13.301 4.9844 18.316 23.859 22.738 40.516 1.4375 5.4141 2.7969 10.531 4.3906 14.934 1.0625 2.9297 2.2734 5.8164 3.4453 8.6055 1.6523 3.9375 3.2148 7.6523 4.3906 11.484 5.3203 17.359 10.586 35.859 13.066 53.574l2.5664-0.35938 0.015625 0.12109-2.582 0.37891c0.76172 5.4492 1.6055 11.152 2.4258 16.535 2.75 18.105 5.582 36.223 5.8906 55.16h-4.8984c5.168-18.535-0.63672-42.555-5.8125-63.938-1.5234-6.2969-2.9648-12.246-3.9531-17.457-3.3867-17.84-7.7266-34.867-12.906-50.602-1.4219-4.3164-3.4688-8.4805-5.4492-12.504-2.6992-5.5-5.2539-10.688-6.0547-15.773zm9.3594 153.98c-2.0977-15.32-8.9492-31.199-19.926-44.551 1.8008-1.0078 3.9844-2.0586 5.332-2.707 1.9883-0.95703 3.8672-1.8594 5.2852-2.7305 5.5508-3.4062 11.141-6.1758 16.648-8.25 0.25781 1.0703 0.51562 2.1367 0.77734 3.2305 4.918 20.32 11.031 45.586 4.918 61.301h-13.098c0.30859-2.2422 0.33203-4.3477 0.0625-6.293zm-20.941-61.391c5.0508-3.1445 9.8203-6.1133 14.852-8.2305 3.2344-1.3594 6.582-2.4648 10.148-3.3594 0.23047 1.2148 0.48828 2.4727 0.75781 3.7461-6.6406 2.3789-13.355 5.6328-19.98 9.6992-0.93359 0.57422-2.5586 1.3555-4.2852 2.1836-3.2656 1.5703-6.0391 2.9688-8.2617 4.4531-0.96875-0.91797-1.9648-1.8164-2.9805-2.6953 3.3594-1.8281 6.5898-3.8281 9.75-5.7969zm-27.746 117.93c-0.99609-1.0625-2-2.0898-2.9883-3.1055-1.9297-1.9766-3.7539-3.8477-5.2617-5.6875l-0.21484-0.25c-4.0703-4.4102-14.137-10.934-22.82-10.934-7.2773 0-12.27 4.7148-13.02 12.301l-0.039063 0.39453 0.015625 0.39453c0.019532 0.42188-0.011718 1.1445-0.042968 1.8477-0.13672 3.1094-0.32813 7.3672 2.1992 10.445l0.39453 0.43359c4.6406 4.5859 7.0742 10.242 8.9922 17.574-12.082 6.5078-23.109 9.9336-32.066 9.9336-4.3594 0-8.2461-0.81641-11.562-2.4219-13.809-6.6992-23.699-20.492-29.445-41.035 6.0117-1.9297 12.738-2.9609 19.777-4.0352 8.3906-1.2852 17.059-2.6094 25.125-5.6289 3.5156-0.90625 6.3125-4.1094 7.7305-8.9102 1.332-4.5039 1.4727-10.484-2.1172-13.777l-0.37109-0.33984-0.42969-0.26953c-7.5781-4.7773-15.961-7.1992-24.918-7.1992-9.5078 0-19.75 2.8164-30.012 8.2031-0.29297-4.0859-0.48047-8.3086-0.5625-12.641 17.129-6.2461 34.363-8.4766 51.156-6.6055l0.39453 0.027344c0.14844 0.003906 0.30078 0.007812 0.45312 0.007812 7.0195 0 16.496-6.8086 18.438-13.242 1.1719-3.8867-0.14453-7.6875-3.4336-9.9648-9.2422-6.9492-20.332-10.473-32.965-10.473-10.129 0-21.324 2.3516-32.797 6.8516 0.13672-1.5469 0.28125-3.0938 0.4375-4.6406 1.1406-11.25 8.7031-19.195 23.117-24.281 13.246-4.6758 29.148-5.6562 40.156-5.6562 8.5859 0 14.582 0.60156 14.645 0.60938 44.977 4.5898 66.281 42.609 69.625 67.047 0.29688 2.1602-0.18359 5.1055-1.3867 8.5117-1.6445 4.6602-4.5508 10.039-8.543 15.852-1.7109-4.5352-3.7695-9.457-6.2656-14.441l-0.26953-0.47656c-2.4023-3.8086-5.8516-8.0195-8.8125-10.758-4.7148-4.625-12.605-9.2656-19.684-9.2656-7.5 0-12.465 4.9688-13.293 13.285l-0.039063 0.39453 0.019532 0.39844c0.16016 3.7266 2.293 9.3086 4.6562 12.188l0.26953 0.30469c2.4375 2.5664 4.8906 5.1055 7.3359 7.6367 6.8281 7.0664 13.332 13.801 19.336 20.922-3.4766 3.6016-7.125 7.1016-10.914 10.477zm20.336-16.641c-6.5469-7.8594-13.73-15.305-20.711-22.527-2.3594-2.4453-4.7305-4.8984-7.0898-7.3789-0.75391-1.0273-1.8047-3.7422-2.0039-5.1328 0.35156-2.7148 1.1602-2.7148 2.0938-2.7148 3.1445 0 8.4766 2.7383 11.887 6.1094l0.14844 0.14062c2.1797 2 4.9648 5.3906 6.8438 8.3164 4.1133 8.2617 6.9766 16.453 9.0156 22.688l0.16406 0.5zm128.74 125.44h-97.16l-14.129-114.24h125.42zm30.723-125.44h-148.58c6.2969-7.9766 11.09-15.621 14.062-22.398l134.52-0.003906zm30.879-1.582-3.0352 1.332 2.3672-2.0234c12-10.242 22.68-15.02 33.613-15.023 0.17578 0.29297 0.33984 0.63281 0.42969 0.91406l-0.20312 0.33984c-3.6094 6.125-10.812 7.9453-19.156 10.055-4.6055 1.1641-9.3711 2.3672-14.016 4.4062zm73.562-31.207c-1.6445 0.82031-2.8477 2.3711-3.2148 4.2461-0.78125 4.0234 2.6875 8.2148 4.7227 9.5586l0.4375 0.26172c6.5234 3.5156 13.91 4.7148 21.055 5.875 6.9219 1.125 13.531 2.1992 17.969 5.3086-2.3164 4.0078-5.1953 7.8906-8.5977 11.578-0.19922 0.21484-0.39844 0.43359-0.59766 0.65234-6.8906-6.7461-15.734-10.762-24.223-10.762-6.2734 0-12.012 2.1953-16.633 6.3516-2.1719 1.5391-3.3398 3.9648-3.1602 6.6367 0.36328 5.3789 6.0664 9.6602 9.5742 11.09l0.59766 0.24609 0.63672 0.10156c5.3438 0.85156 9.9492 2.9062 13.387 5.9141-6.8398 5.7188-13.09 9.5547-18.996 11.676-5.5391 1.9883-10.414 2.957-14.895 2.957-4.707 0-8.9375-1.0664-13.125-3.3711 3.6562-2.668 6.9727-5.9219 9.3164-10.383 1.8984-3.1328 2.0703-7.5781 0.39844-11.195-1.4805-3.2031-4.1758-5.2773-7.3984-5.6953-1.1797-0.16797-2.3516-0.25391-3.4883-0.25391-8.207 0-13.793 4.2031-18.531 8.6836-0.32422-0.39844-0.65625-0.80859-1.0039-1.2383-2.207-2.7344-4.4258-5.6914-6.8008-9.0547 1.9102-0.55078 3.8555-1.043 5.7734-1.5273 9.2617-2.3398 19.734-4.9844 25.77-14.734 2.0234-2.4375 2.6445-5.7852 1.6953-9.3086-0.97266-3.6172-3.8477-8.0039-7.8672-9.0898l-0.59375-0.16016-0.61719-0.027344c-0.73047-0.03125-1.4531-0.046875-2.1758-0.046875-12.133 0-23.676 4.375-35.938 13.695-2.457-3.7852-5.0039-7.6328-7.7227-11.484-0.19531-0.27344-0.39062-0.55078-0.59375-0.83203 4.6875-1.3711 9.9453-2.0938 15.406-2.8438 13.008-1.7891 27.746-3.8125 37.562-16.027 2.2617-2.4922 2.7383-6.043 1.2656-9.582-1.7852-4.2852-6.5469-8.7188-11.426-8.7188-0.42969 0-0.85937 0.035157-1.2773 0.10156-18.398 2.1055-39.414 5.0352-58.887 13-4.4453-7.332-6.6172-13.223-6.6133-17.926 0.003906-10.184 8.1406-14.426 28.086-14.637l0.64844-0.003906c4.793 0 9.8438 0.53906 15.188 1.1055 5.582 0.59375 11.355 1.2109 17.102 1.207 0.88672 0 1.7539-0.015626 2.6055-0.046876 4.4531 0.64844 9.9023 0.070313 13.633-2.168 0.58203-0.17969 1.1562-0.36719 1.7227-0.57031 2.3711-0.85547 4.6406-1.7109 6.8477-2.5469 10.453-3.9492 18.711-7.0664 29.75-7.0664 1.5977 0 3.2461 0.066406 4.9102 0.20312 17.422 1.4023 24.992 8.8672 29.773 21.391-0.84766-0.019531-1.7031-0.027344-2.5664-0.027344-12.371 0-24.863 1.9375-36.949 3.8125-2.3633 0.36719-4.7227 0.73047-7.0664 1.082l-9.8516 1.4688 6.3711 7.6523 0.046875 0.054688c0.31641 0.40234 0.64062 0.79688 0.97266 1.1875l-0.33203 0.35156c1.0312 0.97266 2.1445 1.9141 3.3125 2.8047 7.4141 7.125 16.652 10.59 28.23 10.59 4.1836 0 8.6719-0.42578 14.109-1.3398 3.4336-0.28125 6.8672-0.69141 10.105-1.1289 0.19922 1.6055 0.34766 3.1914 0.44922 4.75-18.461-2.9922-34.789-0.20312-48.289 8.2031z"/>
  <use x="70" y="576.800781" xlink:href="#z"/>
  <use x="74.109375" y="576.800781" xlink:href="#c"/>
  <use x="76.871094" y="576.800781" xlink:href="#b"/>
  <use x="80.667969" y="576.800781" xlink:href="#e"/>
  <use x="84.449219" y="576.800781" xlink:href="#a"/>
  <use x="87.125" y="576.800781" xlink:href="#b"/>
  <use x="90.921875" y="576.800781" xlink:href="#l"/>
  <use x="96.882812" y="576.800781" xlink:href="#k"/>
  <use x="100.890625" y="576.800781" xlink:href="#j"/>
  <use x="106.488281" y="576.800781" xlink:href="#i"/>
  <use x="112.0625" y="576.800781" xlink:href="#e"/>
  <use x="115.839844" y="576.800781" xlink:href="#c"/>
  <use x="118.601562" y="576.800781" xlink:href="#a"/>
  <use x="121.28125" y="576.800781" xlink:href="#y"/>
  <use x="123.199219" y="576.800781" xlink:href="#h"/>
  <use x="129.136719" y="576.800781" xlink:href="#x"/>
  <use x="132.703125" y="576.800781" xlink:href="#g"/>
  <use x="136.53125" y="576.800781" xlink:href="#w"/>
  <use x="140.796875" y="576.800781" xlink:href="#v"/>
  <use x="145.109375" y="576.800781" xlink:href="#g"/>
  <use x="148.9375" y="576.800781" xlink:href="#u"/>
  <use x="152.753906" y="576.800781" xlink:href="#t"/>
  <use x="157.515625" y="576.800781" xlink:href="#f"/>
  <use x="70" y="582.398437" xlink:href="#s"/>
  <use x="72.4375" y="582.398437" xlink:href="#c"/>
  <use x="75.199219" y="582.398437" xlink:href="#d"/>
  <use x="79.046875" y="582.398437" xlink:href="#r"/>
  <use x="86.828125" y="582.398437" xlink:href="#a"/>
  <use x="89.507812" y="582.398437" xlink:href="#q"/>
  <use x="93.492188" y="582.398437" xlink:href="#b"/>
  <use x="99.242188" y="582.398437" xlink:href="#f"/>
  <use x="103.929688" y="582.398437" xlink:href="#d"/>
  <use x="107.773438" y="582.398437" xlink:href="#p"/>
  <use x="111.761719" y="582.398437" xlink:href="#h"/>
  <use x="117.699219" y="582.398437" xlink:href="#o"/>
  <use x="121.800781" y="582.398437" xlink:href="#c"/>
  <use x="124.5625" y="582.398437" xlink:href="#d"/>
  <use x="128.410156" y="582.398437" xlink:href="#n"/>
  <use x="130.332031" y="582.398437" xlink:href="#b"/>
  <use x="134.128906" y="582.398437" xlink:href="#m"/>
  <use x="137.449219" y="582.398437" xlink:href="#a"/>
 </g>
</svg>
